<?xml version="1.0" standalone="no"?>
<!DOCTYPE svg PUBLIC "-//W3C//DTD SVG 20010904//EN"
 "http://www.w3.org/TR/2001/REC-SVG-20010904/DTD/svg10.dtd">
<svg version="1.0" xmlns="http://www.w3.org/2000/svg"
 width="300.000000pt" height="150.000000pt" viewBox="0 0 300.000000 150.000000"
 preserveAspectRatio="xMidYMid meet">
<metadata>
Created by potrace 1.15, written by Peter Selinger 2001-2017
</metadata>
<g transform="translate(0.000000,150.000000) scale(0.100000,-0.100000)"
fill="#000000" stroke="none">
<path d="M660 1050 c0 -67 -4 -110 -10 -110 -6 0 -10 -35 -10 -85 l0 -85 96 0
c92 0 97 1 125 29 23 24 29 38 29 74 0 29 -7 53 -19 68 -16 19 -16 25 -5 37
22 21 28 62 15 97 -6 18 -9 39 -6 47 9 24 -39 38 -130 38 l-85 0 0 -110z m144
-2 c-7 -37 -28 -58 -58 -58 -16 0 -17 3 -8 12 7 7 12 27 12 45 0 30 3 33 30
33 28 0 29 -2 24 -32z m-4 -143 c16 -19 6 -43 -22 -54 -39 -14 -58 -2 -58 35
0 32 2 34 34 34 18 0 39 -7 46 -15z"/>
<path d="M930 965 l0 -195 100 0 100 0 0 40 0 40 -60 0 -60 0 0 40 0 40 60 0
60 0 0 40 0 40 -60 0 -60 0 0 35 0 35 60 0 60 0 0 40 0 40 -100 0 -100 0 0
-195z"/>
<path d="M1255 1148 c-13 -39 -105 -363 -105 -370 0 -4 20 -8 45 -8 43 0 44 1
51 35 6 36 7 36 52 33 42 -3 46 -5 54 -35 8 -31 11 -33 54 -33 38 0 45 3 40
18 -8 29 -97 336 -102 355 -6 21 -82 25 -89 5z m59 -219 c-3 -5 -12 -9 -21 -9
-13 0 -14 8 -9 42 10 62 19 68 28 19 4 -24 5 -48 2 -52z"/>
<path d="M1467 1133 c-4 -16 -4 -86 -2 -157 3 -108 7 -134 23 -155 27 -37 59
-51 119 -51 41 0 58 5 82 26 42 35 51 77 51 232 l0 132 -45 0 -45 0 0 -143 c0
-151 -4 -167 -46 -167 -44 0 -52 29 -53 198 l-1 112 -39 0 c-34 0 -39 -3 -44
-27z"/>
<path d="M1770 1115 l0 -45 45 0 45 0 0 -150 0 -150 45 0 45 0 0 150 0 150 45
0 45 0 0 45 0 45 -135 0 -135 0 0 -45z"/>
<path d="M2063 1148 c2 -7 26 -59 53 -116 l48 -104 -37 -74 c-20 -41 -37 -77
-37 -79 0 -11 88 -4 97 8 11 14 173 362 173 371 0 3 -20 6 -46 6 -45 0 -45 0
-70 -55 -14 -30 -29 -55 -34 -55 -4 0 -18 25 -30 55 l-22 55 -50 0 c-36 0 -49
-4 -45 -12z"/>
<path d="M1010 735 c0 -17 22 -45 36 -45 11 0 12 -4 4 -19 -5 -11 -10 -42 -10
-69 0 -53 -14 -74 -60 -87 -36 -11 -50 -24 -51 -49 0 -17 -3 -15 -15 12 -9 21
-21 32 -34 32 -24 0 -24 4 -5 -51 13 -36 26 -50 71 -77 55 -34 55 -34 122 -22
65 11 68 13 110 67 39 52 42 60 42 118 0 60 -2 66 -45 118 -35 43 -52 56 -82
61 -21 4 -48 10 -60 13 -13 3 -23 2 -23 -2z m115 -76 c4 -5 0 -18 -9 -28 -10
-11 -16 -36 -16 -67 0 -62 -8 -74 -62 -95 -30 -11 -44 -23 -46 -38 -3 -19 -25
-27 -23 -8 1 4 1 16 1 26 0 13 11 23 35 31 52 17 75 53 75 114 0 61 26 97 45
65z m53 -110 c2 -50 0 -57 -35 -97 -28 -32 -48 -44 -75 -49 -52 -8 -50 13 3
34 47 18 69 57 69 121 0 76 34 68 38 -9z"/>
<path d="M1287 733 c-4 -3 -7 -41 -7 -83 0 -57 4 -81 15 -90 11 -10 15 -36 15
-111 l0 -99 88 0 c69 0 94 4 120 20 30 19 44 50 22 50 -7 0 -9 13 -5 33 4 22
0 44 -14 71 -18 35 -19 41 -6 60 31 43 11 117 -36 142 -29 14 -179 20 -192 7z
m151 -105 c3 -22 -2 -29 -22 -34 -38 -9 -53 0 -50 33 1 15 2 29 3 31 1 2 16 2
34 0 26 -2 33 -8 35 -30z m-10 -117 c18 -11 43 -61 36 -72 -3 -5 -21 -9 -40
-9 -31 0 -34 3 -34 29 0 16 -3 36 -6 45 -7 18 21 22 44 7z"/>
<path d="M1662 723 c-5 -10 -28 -83 -51 -163 -22 -80 -45 -160 -50 -178 l-10
-33 46 3 c43 3 47 5 55 36 8 30 11 32 52 32 42 0 44 -1 50 -35 7 -34 8 -35 51
-35 30 0 45 4 45 13 0 6 -24 93 -53 192 l-53 180 -36 3 c-27 2 -39 -2 -46 -15z
m56 -173 c10 -39 9 -40 -15 -40 -19 0 -24 4 -19 16 3 9 6 27 6 40 0 38 17 28
28 -16z"/>
<path d="M1860 731 c0 -4 22 -56 50 -114 l49 -106 -34 -76 c-19 -42 -35 -78
-35 -81 0 -3 21 -4 47 -2 l46 3 84 180 c47 99 87 186 90 193 4 9 -8 12 -43 12
l-49 0 -24 -55 c-13 -30 -27 -55 -32 -55 -4 0 -19 25 -33 55 -25 55 -25 55
-70 55 -26 0 -46 -4 -46 -9z"/>
</g>
</svg>
