<?xml version="1.0" standalone="no"?>
<!DOCTYPE svg PUBLIC "-//W3C//DTD SVG 20010904//EN"
 "http://www.w3.org/TR/2001/REC-SVG-20010904/DTD/svg10.dtd">
<svg version="1.0" xmlns="http://www.w3.org/2000/svg"
 width="300.000000pt" height="168.000000pt" viewBox="0 0 300.000000 168.000000"
 preserveAspectRatio="xMidYMid meet">
<metadata>
Created by potrace 1.15, written by Peter Selinger 2001-2017
</metadata>
<g transform="translate(0.000000,168.000000) scale(0.100000,-0.100000)"
fill="#000000" stroke="none">
<path d="M97 1080 c-43 -34 -61 -108 -62 -250 0 -188 31 -250 125 -250 58 0
94 37 110 116 l13 59 12 -50 c21 -93 52 -125 122 -125 54 0 91 31 114 96 15
41 18 44 18 21 2 -66 51 -117 114 -117 78 0 127 52 127 135 0 56 -26 104 -95
176 -65 68 -79 101 -53 127 29 29 68 2 68 -47 0 -17 6 -21 35 -21 33 0 35 2
35 35 0 43 -23 90 -49 105 -11 5 -38 10 -61 10 -34 0 -48 -6 -75 -33 -71 -71
-57 -155 46 -263 69 -73 79 -96 59 -135 -21 -39 -70 -16 -70 33 0 26 -3 28
-42 28 l-43 0 0 113 c0 186 -36 257 -130 257 -58 0 -91 -29 -115 -100 -13 -38
-19 -47 -20 -30 -1 37 -35 107 -58 119 -34 18 -97 13 -125 -9z m96 -107 l9
-53 41 0 42 0 -3 -70 -4 -70 -39 0 c-39 0 -39 0 -39 -41 0 -50 -15 -79 -40
-79 -28 0 -35 36 -35 185 0 156 7 188 38 183 18 -2 23 -12 30 -55z m248 35
c18 -33 17 -311 0 -332 -33 -39 -58 -8 -61 74 -5 161 0 249 16 264 21 22 31
20 45 -6z"/>
<path d="M1208 1085 c-46 -26 -63 -90 -63 -245 0 -204 29 -260 135 -260 86 0
120 74 120 260 0 186 -35 260 -122 260 -23 -1 -55 -7 -70 -15z m89 -86 c15
-29 18 -275 3 -313 -15 -41 -47 -34 -61 12 -16 54 -9 293 10 316 18 21 32 16
48 -15z"/>
<path d="M1734 1082 c-28 -22 -54 -74 -54 -106 0 -45 -17 -37 -23 11 -4 37
-12 54 -36 75 -29 26 -37 28 -116 28 l-85 0 0 -250 0 -250 40 0 40 0 0 100 0
100 33 0 c48 0 100 30 118 69 l16 35 5 -105 c7 -155 42 -209 134 -209 49 0 70
14 96 63 21 38 23 55 23 197 0 142 -2 159 -23 197 -12 23 -31 47 -41 53 -31
16 -103 12 -127 -8z m87 -69 c17 -20 26 -259 12 -313 -7 -28 -14 -35 -33 -35
-34 0 -43 44 -38 201 3 125 12 164 38 164 4 0 14 -7 21 -17z m-265 -7 c14 -11
19 -26 19 -59 0 -51 -17 -77 -51 -77 -23 0 -24 3 -24 75 0 66 2 75 18 75 10 0
27 -6 38 -14z"/>
<path d="M800 840 l0 -250 30 0 30 0 0 182 c0 100 4 178 8 172 5 -5 19 -76 31
-159 30 -200 29 -195 57 -195 13 0 24 3 24 8 1 25 60 345 64 350 3 3 6 -76 6
-176 l0 -182 40 0 40 0 0 250 0 251 -62 -3 -63 -3 -19 -117 c-10 -65 -22 -115
-26 -113 -4 2 -10 26 -13 52 -3 26 -11 78 -17 116 l-12 67 -59 0 -59 0 0 -250z"/>
<path d="M1945 840 l0 -250 103 0 102 0 0 35 0 35 -60 0 -60 0 0 215 0 215
-42 0 -43 0 0 -250z"/>
<path d="M2170 840 l0 -250 45 0 45 0 0 250 0 250 -45 0 -45 0 0 -250z"/>
<path d="M2278 1055 c4 -32 7 -35 38 -35 l34 0 0 -215 0 -215 45 0 45 0 0 215
0 215 40 0 c39 0 40 1 40 35 l0 35 -123 0 -123 0 4 -35z"/>
<path d="M2536 1068 c-3 -13 -17 -111 -31 -218 -14 -107 -29 -210 -32 -227 -5
-32 -4 -33 30 -33 31 0 35 3 41 31 3 17 6 42 6 55 0 21 5 24 39 24 l40 0 6
-55 7 -55 79 0 79 0 1 153 c0 147 1 150 14 102 8 -27 29 -95 48 -150 l34 -100
36 -3 37 -3 0 250 0 251 -35 0 -35 0 -1 -137 0 -138 -45 138 -45 137 -39 0
-40 0 0 -247 c0 -135 -3 -244 -6 -241 -4 5 -63 447 -64 481 0 4 -27 7 -60 7
-54 0 -60 -2 -64 -22z m68 -145 c4 -43 10 -95 13 -115 5 -37 5 -38 -27 -38
-30 0 -32 2 -27 28 3 15 9 67 13 115 4 48 10 87 14 87 4 0 10 -35 14 -77z"/>
</g>
</svg>
