<?xml version="1.0" standalone="no"?>
<!DOCTYPE svg PUBLIC "-//W3C//DTD SVG 20010904//EN"
 "http://www.w3.org/TR/2001/REC-SVG-20010904/DTD/svg10.dtd">
<svg version="1.0" xmlns="http://www.w3.org/2000/svg"
 width="486.000000pt" height="291.000000pt" viewBox="0 0 486.000000 291.000000"
 preserveAspectRatio="xMidYMid meet">
<metadata>
Created by potrace 1.15, written by Peter Selinger 2001-2017
</metadata>
<g transform="translate(0.000000,291.000000) scale(0.100000,-0.100000)"
fill="#000000" stroke="none">
<path d="M1400 1615 l0 -515 50 0 50 0 0 515 0 515 -50 0 -50 0 0 -515z"/>
<path d="M3170 1868 l0 -262 -32 32 c-45 42 -96 62 -164 62 -81 0 -129 -18
-184 -67 -116 -104 -134 -308 -39 -438 88 -120 259 -147 374 -59 l45 34 0 -35
0 -35 50 0 50 0 0 515 0 515 -50 0 -50 0 0 -262z m-100 -280 c101 -51 139
-193 82 -305 -37 -72 -88 -103 -167 -103 -117 0 -188 81 -189 216 -1 62 3 77
29 120 35 57 97 94 160 94 22 0 61 -10 85 -22z"/>
<path d="M196 1690 c-43 -13 -101 -57 -130 -98 -99 -144 -81 -332 42 -444 48
-43 100 -62 172 -62 73 0 124 19 173 63 l40 36 -5 -87 c-7 -104 -35 -171 -87
-205 -41 -28 -145 -32 -190 -9 -42 22 -87 79 -95 120 -7 36 -7 36 -57 36 l-50
0 7 -37 c12 -69 36 -113 84 -156 58 -53 103 -67 206 -67 129 0 206 48 258 160
20 43 21 65 24 398 l3 352 -50 0 -51 0 0 -42 0 -42 -27 27 c-62 58 -178 83
-267 57z m164 -90 c114 -31 166 -198 102 -321 -39 -75 -85 -101 -173 -97 -53
3 -73 9 -101 30 -50 38 -78 103 -78 182 0 78 11 110 53 155 55 57 117 73 197
51z"/>
<path d="M863 1683 c-58 -20 -134 -105 -156 -173 -52 -160 9 -332 139 -396
102 -50 217 -36 294 36 l30 28 0 -39 0 -39 50 0 50 0 0 295 0 295 -50 0 -50 0
0 -41 0 -41 -40 35 c-22 18 -57 39 -79 45 -52 16 -137 14 -188 -5z m194 -88
c47 -20 71 -41 93 -85 58 -113 13 -275 -87 -316 -48 -20 -132 -18 -169 5 -86
52 -124 167 -92 275 14 47 84 122 119 129 51 9 101 6 136 -8z"/>
<path d="M3577 1686 c-92 -33 -158 -120 -177 -237 -30 -175 66 -329 222 -358
130 -24 244 23 312 130 17 27 16 27 -17 48 -19 12 -38 21 -42 21 -5 0 -24 -19
-43 -41 -42 -49 -85 -69 -146 -69 -53 0 -93 14 -124 43 -31 29 -62 90 -62 122
l0 25 230 0 230 0 0 25 c0 126 -79 254 -179 290 -53 18 -153 19 -204 1z m160
-87 c48 -18 113 -92 113 -129 0 -6 -59 -10 -175 -10 -96 0 -175 2 -175 5 0 14
40 82 57 97 46 42 124 58 180 37z"/>
<path d="M4265 1688 c-11 -6 -32 -22 -47 -36 l-28 -26 0 33 0 32 -47 -3 -48
-3 -3 -292 -2 -293 48 0 49 0 5 198 c5 207 13 247 56 285 26 23 92 33 120 18
49 -26 57 -61 60 -288 l4 -213 49 0 49 0 0 186 c0 200 9 260 45 294 27 26 89
36 128 21 50 -19 57 -56 57 -291 l0 -210 50 0 50 0 0 218 c0 119 -5 234 -10
254 -13 44 -52 93 -91 113 -62 33 -175 12 -232 -42 l-27 -27 -33 31 c-17 18
-45 37 -60 42 -37 14 -116 14 -142 -1z"/>
<path d="M1632 1403 l3 -48 460 0 460 0 3 48 3 47 -466 0 -466 0 3 -47z"/>
</g>
</svg>
