<?xml version="1.0" standalone="no"?>
<!DOCTYPE svg PUBLIC "-//W3C//DTD SVG 20010904//EN"
 "http://www.w3.org/TR/2001/REC-SVG-20010904/DTD/svg10.dtd">
<svg version="1.0" xmlns="http://www.w3.org/2000/svg"
 width="400.000000pt" height="328.000000pt" viewBox="0 0 400.000000 328.000000"
 preserveAspectRatio="xMidYMid meet">
<metadata>
Created by potrace 1.15, written by Peter Selinger 2001-2017
</metadata>
<g transform="translate(0.000000,328.000000) scale(0.100000,-0.100000)"
fill="#000000" stroke="none">
<path d="M1385 2216 c-57 -25 -88 -102 -62 -153 27 -52 65 -78 111 -78 53 0
93 26 113 73 43 104 -60 205 -162 158z"/>
<path d="M668 2208 c-145 -18 -310 -139 -358 -263 -31 -79 -38 -194 -16 -267
26 -90 115 -191 211 -241 116 -59 278 -75 385 -37 68 24 67 24 73 0 5 -18 14
-20 96 -20 l91 0 0 150 0 150 -181 0 -180 0 3 -27 c3 -27 5 -28 83 -33 l80 -5
3 -32 c5 -52 -30 -107 -85 -134 -49 -24 -134 -36 -177 -25 -36 9 -84 53 -108
100 -50 99 -70 299 -44 440 21 112 45 158 98 193 57 38 152 39 218 3 62 -35
99 -103 100 -182 0 -68 5 -71 115 -66 l70 3 0 150 0 150 -90 0 c-86 0 -90 -1
-93 -22 -4 -27 -8 -28 -58 -7 -49 21 -163 31 -236 22z"/>
<path d="M2230 2201 c-8 -5 -66 -26 -128 -46 l-113 -38 30 -31 c29 -30 31 -37
31 -104 0 -77 -5 -83 -50 -57 -33 19 -138 19 -183 0 -49 -20 -105 -78 -130
-134 -44 -97 -31 -285 24 -355 66 -84 189 -87 287 -6 20 16 40 30 44 30 5 0 8
-18 8 -40 l0 -40 132 0 133 0 -28 25 -27 26 0 389 c0 215 -3 390 -7 390 -5 0
-15 -5 -23 -9z m-185 -516 l0 -210 -42 -3 c-36 -3 -47 1 -67 23 -63 68 -62
318 1 387 13 14 28 18 62 16 l46 -3 0 -210z"/>
<path d="M2807 2162 l-128 -45 30 -31 c29 -30 31 -37 31 -104 0 -40 -4 -72 -9
-72 -5 0 -25 7 -44 15 -55 23 -143 19 -197 -9 -98 -49 -145 -157 -138 -310 5
-106 27 -159 85 -203 32 -24 45 -28 104 -28 63 0 71 3 128 43 33 23 62 42 66
42 3 0 5 -18 5 -40 l0 -40 125 0 c69 0 125 2 125 5 0 3 -9 14 -20 25 -19 19
-20 33 -20 410 0 215 -3 390 -7 389 -5 -1 -66 -22 -136 -47z m-78 -276 c8 -9
11 -74 9 -212 l-3 -199 -37 -3 c-72 -6 -100 29 -116 143 -14 107 5 223 45 267
19 22 85 24 102 4z"/>
<path d="M3490 1930 c0 -5 23 -45 51 -89 l50 -80 -61 -91 c-34 -51 -66 -88
-70 -84 -26 26 -169 278 -163 288 3 6 15 21 26 34 l20 22 -151 0 c-84 0 -152
-3 -152 -6 0 -7 208 -378 268 -477 l35 -59 -20 -26 c-39 -52 -79 -67 -180 -67
l-93 0 0 -117 c0 -132 -2 -128 74 -107 65 18 118 78 184 207 55 110 134 237
328 529 45 67 79 125 76 128 -10 9 -222 5 -222 -5z"/>
<path d="M1270 1923 c1 -5 14 -24 30 -43 l30 -34 0 -203 0 -202 -32 -30 -33
-31 163 0 164 0 -26 31 -26 31 0 244 0 244 -135 0 c-74 0 -135 -3 -135 -7z"/>
</g>
</svg>
