<?xml version="1.0" standalone="no"?>
<!DOCTYPE svg PUBLIC "-//W3C//DTD SVG 20010904//EN"
 "http://www.w3.org/TR/2001/REC-SVG-20010904/DTD/svg10.dtd">
<svg version="1.0" xmlns="http://www.w3.org/2000/svg"
 width="224.000000pt" height="224.000000pt" viewBox="0 0 224.000000 224.000000"
 preserveAspectRatio="xMidYMid meet">
<metadata>
Created by potrace 1.15, written by Peter Selinger 2001-2017
</metadata>
<g transform="translate(0.000000,224.000000) scale(0.100000,-0.100000)"
fill="#000000" stroke="none">
<path d="M0 1120 l0 -1120 1120 0 1120 0 0 1120 0 1120 -1120 0 -1120 0 0
-1120z m908 258 c7 -7 12 -26 12 -43 0 -38 -16 -55 -51 -55 -49 0 -73 45 -49
91 12 22 68 27 88 7z m-163 -78 l0 -65 -42 -3 c-42 -3 -43 -2 -43 28 0 43 -47
90 -90 90 -46 0 -86 -44 -95 -104 -10 -62 -1 -146 19 -183 29 -56 117 -68 151
-20 26 37 19 55 -20 59 -69 6 -40 23 43 26 l83 3 -3 -68 -3 -68 -39 -3 c-21
-2 -42 1 -45 7 -4 7 -21 7 -50 0 -108 -24 -224 41 -251 142 -21 76 24 160 105
199 39 19 58 22 121 18 41 -3 77 -1 80 4 3 5 22 8 42 6 l37 -3 0 -65z m495
-104 c0 -106 4 -177 10 -181 25 -15 5 -25 -50 -25 -47 0 -60 3 -60 15 0 19 -5
19 -35 -1 -35 -23 -94 -15 -117 17 -29 38 -34 101 -13 154 21 57 60 79 122 72
41 -4 43 -4 43 23 0 15 -7 34 -16 41 -14 11 -9 16 42 36 33 12 62 22 67 22 4
1 7 -77 7 -173z m310 12 c0 -122 4 -170 14 -190 l15 -28 -60 0 c-43 0 -61 4
-65 15 -5 13 -9 13 -34 0 -44 -23 -87 -19 -114 10 -47 51 -40 153 15 208 27
27 35 29 79 25 l50 -5 0 31 c0 18 -5 37 -10 42 -8 8 5 17 42 32 29 11 56 21
61 21 4 1 7 -72 7 -161z m-630 -72 c0 -66 4 -117 10 -121 26 -16 3 -25 -66
-25 l-75 0 15 22 c12 16 16 47 16 108 0 61 -4 92 -16 108 l-15 22 65 0 66 0 0
-114z m790 99 c-9 -11 -5 -26 26 -75 20 -33 40 -60 44 -60 12 0 40 48 40 67 0
10 -9 29 -20 43 -11 14 -20 28 -20 33 0 4 23 7 51 7 45 0 50 -2 44 -17 -17
-46 -209 -354 -228 -368 -12 -8 -32 -15 -44 -15 -21 0 -23 4 -23 55 l0 56 34
-6 c33 -7 87 12 101 34 3 6 -24 62 -60 127 -36 64 -65 120 -65 125 0 5 30 9
66 9 57 0 65 -2 54 -15z"/>
<path d="M1086 1208 c-24 -34 -22 -132 4 -158 11 -11 26 -17 35 -14 24 9 18
187 -7 192 -9 2 -23 -7 -32 -20z"/>
<path d="M1399 1208 c-6 -12 -11 -49 -11 -82 1 -50 5 -64 23 -78 11 -10 25
-15 30 -12 5 3 9 48 9 100 0 87 -2 94 -20 94 -10 0 -25 -10 -31 -22z"/>
</g>
</svg>
