<svg width="246" height="85" viewBox="0 0 246 85" fill="none" xmlns="http://www.w3.org/2000/svg">
<path d="M15.8132 14.9668L6.02706 23.2125L4.32809 21.1961L14.1142 12.9505L15.8132 14.9668ZM14.9173 22.3877L13.3445 23.7129L9.59543 19.2634L11.1682 17.9382L14.9173 22.3877ZM19.4943 19.3357L17.9148 20.6665L13.7693 15.7466L15.3488 14.4157L19.4943 19.3357Z" fill="black"/>
<path d="M21.3543 28.9088L16.1448 34.2143L14.3387 32.4408L21.0014 25.6553L22.701 27.3241L21.3543 28.9088ZM24.8951 29.3923L23.2196 31.0359C23.1441 30.9372 23.0478 30.8221 22.9306 30.6905C22.8216 30.5589 22.717 30.4439 22.6167 30.3454C22.3616 30.0949 22.1072 29.9108 21.8534 29.793C21.6079 29.6751 21.3608 29.6172 21.1122 29.6195C20.8678 29.6259 20.626 29.6882 20.3868 29.8064C20.1517 29.9287 19.9171 30.1007 19.683 30.3224L19.4301 29.8524C19.8611 29.4134 20.3012 29.053 20.7502 28.7713C21.2034 28.4855 21.649 28.2866 22.0872 28.1749C22.5296 28.0673 22.948 28.0593 23.3424 28.151C23.7369 28.2427 24.093 28.4446 24.4108 28.7566C24.5111 28.8551 24.6053 28.964 24.6934 29.0834C24.7856 29.1986 24.8529 29.3015 24.8951 29.3923Z" fill="black"/>
<path d="M26.5294 43.7024C25.9563 43.2371 25.5161 42.7288 25.2089 42.1775C24.9054 41.6217 24.7274 41.0508 24.6749 40.4647C24.6269 39.8824 24.6942 39.3068 24.8767 38.738C25.0629 38.1646 25.3554 37.6323 25.7543 37.141L25.9759 36.8681C26.4301 36.3086 26.9252 35.8614 27.4611 35.5267C27.997 35.1919 28.5513 34.974 29.124 34.8729C29.7012 34.7754 30.2774 34.8093 30.8528 34.9745C31.4318 35.1351 31.9897 35.4333 32.5265 35.8691C33.0496 36.2938 33.4435 36.7569 33.708 37.2585C33.9725 37.76 34.112 38.2808 34.1264 38.8208C34.1454 39.3645 34.0444 39.9165 33.8235 40.4768C33.6063 41.0325 33.278 41.5811 32.8385 42.1224L32.1738 42.9412L26.3055 38.1772L27.3691 36.8671L31.3063 40.0634L31.4282 39.9133C31.6498 39.6404 31.7973 39.3564 31.8708 39.0613C31.9525 38.7654 31.9473 38.4744 31.8551 38.1882C31.7629 37.902 31.5644 37.6352 31.2596 37.3878C31.0003 37.1773 30.7313 37.0532 30.4524 37.0155C30.1736 36.9778 29.8919 37.0133 29.6075 37.122C29.3276 37.2344 29.0454 37.4053 28.761 37.6348C28.4848 37.8634 28.2138 38.1415 27.9479 38.469L27.7263 38.742C27.4862 39.0376 27.3056 39.3438 27.1844 39.6605C27.0677 39.9809 27.0128 40.2948 27.0198 40.6023C27.0313 40.9136 27.1078 41.2097 27.2495 41.4907C27.3957 41.7754 27.6121 42.0341 27.8987 42.2668C28.2535 42.5549 28.6387 42.7544 29.0543 42.8653C29.4781 42.9754 29.9159 42.98 30.3678 42.8789L30.4811 44.6916C30.1455 44.7889 29.7604 44.831 29.3258 44.8178C28.8958 44.8083 28.4407 44.7181 27.9606 44.5472C27.4841 44.3718 27.0071 44.0902 26.5294 43.7024Z" fill="black"/>
<path d="M38.8808 52.6517C38.262 52.2489 37.7711 51.7894 37.4079 51.2733C37.0479 50.7523 36.8111 50.2032 36.6976 49.6258C36.5889 49.0517 36.5956 48.4722 36.7176 47.8875C36.8428 47.2978 37.078 46.7378 37.4232 46.2074L37.615 45.9128C38.0082 45.3088 38.4538 44.8123 38.9517 44.4233C39.4497 44.0343 39.9781 43.7596 40.537 43.5991C41.1009 43.4418 41.6775 43.4152 42.267 43.5192C42.8597 43.6184 43.4457 43.8566 44.0251 44.2338C44.5899 44.6014 45.03 45.0208 45.3456 45.4919C45.6611 45.963 45.8543 46.4663 45.9252 47.0019C46.001 47.5406 45.9583 48.1001 45.7973 48.6805C45.6394 49.2559 45.3703 49.8358 44.9899 50.4201L44.4144 51.304L38.0799 47.1802L39.0005 45.766L43.2506 48.5328L43.3561 48.3707C43.5479 48.0761 43.6649 47.7782 43.7071 47.4771C43.7574 47.1743 43.7218 46.8854 43.6001 46.6104C43.4785 46.3355 43.2532 46.0909 42.9242 45.8767C42.6443 45.6945 42.3637 45.5992 42.0824 45.5909C41.8012 45.5826 41.5248 45.6474 41.2533 45.7853C40.9866 45.9263 40.7239 46.1259 40.4651 46.3838C40.2144 46.6401 39.9739 46.945 39.7437 47.2986L39.5519 47.5932C39.3442 47.9124 39.1965 48.2358 39.1091 48.5634C39.0266 48.8942 39.0049 49.2122 39.044 49.5173C39.088 49.8256 39.1951 50.1121 39.3654 50.3768C39.5406 50.6446 39.7829 50.8793 40.0922 51.0807C40.4753 51.33 40.8792 51.4881 41.3041 51.555C41.7371 51.6201 42.1731 51.5788 42.6119 51.431L42.9142 53.2219C42.5906 53.3538 42.212 53.436 41.7785 53.4683C41.3498 53.5039 40.8878 53.4618 40.3924 53.3421C39.9003 53.2175 39.3964 52.9873 38.8808 52.6517Z" fill="black"/>
<path d="M56.9775 47.3936L50.6275 59.307L48.386 58.1122L54.7359 46.1989L56.9775 47.3936Z" fill="black"/>
<path d="M62.9295 62.7044L64.5883 58.8064C64.7076 58.526 64.7639 58.2666 64.7571 58.0281C64.7527 57.7842 64.6775 57.5644 64.5316 57.3686C64.391 57.175 64.1698 57.014 63.8679 56.8856C63.6091 56.7754 63.3659 56.726 63.1381 56.7374C62.9127 56.7434 62.7132 56.8081 62.5397 56.9316C62.3684 57.0498 62.2357 57.2194 62.1417 57.4404L59.8126 56.4493C59.9709 56.0773 60.2074 55.7608 60.5222 55.5C60.837 55.2391 61.2127 55.052 61.6494 54.9385C62.0884 54.8197 62.5654 54.7839 63.0802 54.831C63.6004 54.8805 64.1436 55.0257 64.7097 55.2666C65.389 55.5557 65.9447 55.9259 66.3767 56.3771C66.8087 56.8284 67.0793 57.3448 67.1885 57.9261C67.3031 58.5098 67.2158 59.1413 66.9267 59.8206L65.3333 63.565C65.1291 64.0449 64.9912 64.451 64.9198 64.7836C64.8506 65.1108 64.8244 65.4117 64.8413 65.6863L64.7828 65.8238L62.4294 64.8223C62.4171 64.5369 62.457 64.2036 62.5492 63.8225C62.649 63.4384 62.7757 63.0657 62.9295 62.7044ZM64.665 59.479L64.1202 60.8041L62.8182 60.25C62.5109 60.1192 62.2291 60.0407 61.9728 60.0144C61.7165 59.9882 61.4881 60.0088 61.2875 60.0762C61.0891 60.1383 60.9193 60.2379 60.7781 60.3752C60.6423 60.5148 60.5319 60.6844 60.447 60.8839C60.3622 61.0834 60.3311 61.2835 60.3539 61.4842C60.3791 61.6796 60.4584 61.8598 60.5919 62.0249C60.7277 62.1846 60.9115 62.3137 61.1434 62.4124C61.4938 62.5615 61.8283 62.6211 62.1467 62.591C62.4652 62.561 62.7381 62.4733 62.9654 62.3281C63.1982 62.1852 63.3563 62.0232 63.4397 61.8422L63.6344 63.0904C63.4541 63.2747 63.238 63.4534 62.9861 63.6264C62.7395 63.8017 62.4583 63.9463 62.1424 64.0602C61.8288 64.1687 61.4842 64.2226 61.1088 64.2221C60.7356 64.2161 60.3307 64.1202 59.8939 63.9343C59.3386 63.698 58.8816 63.373 58.5227 62.9592C58.1716 62.5423 57.9477 62.0809 57.851 61.5749C57.762 61.0658 57.8253 60.5578 58.041 60.051C58.236 59.5927 58.4955 59.2224 58.8195 58.94C59.1434 58.6575 59.5242 58.4662 59.9617 58.3658C60.4069 58.2623 60.9093 58.2564 61.4689 58.3481C62.0307 58.4344 62.6459 58.6198 63.3145 58.9043L64.665 59.479Z" fill="black"/>
<path d="M76.0764 61.8621L73.9089 69.0206L71.4863 68.2871L74.2422 59.1854L76.5134 59.8731L76.0764 61.8621ZM75.0304 64.0431L74.3742 63.8445C74.578 63.1715 74.8483 62.5922 75.1852 62.1065C75.5237 61.6151 75.9077 61.2263 76.3372 60.9401C76.7685 60.6482 77.2305 60.4667 77.7235 60.3956C78.2237 60.3205 78.743 60.3645 79.2814 60.5275C79.7076 60.6566 80.0787 60.8363 80.3946 61.0666C80.7105 61.297 80.9539 61.5849 81.1248 61.9305C81.3013 62.2778 81.3897 62.6934 81.3902 63.1771C81.3962 63.6626 81.3025 64.225 81.1089 64.8643L79.3515 70.6685L76.912 69.9299L78.672 64.1173C78.7942 63.7135 78.8332 63.3825 78.789 63.1242C78.7448 62.8659 78.6269 62.6588 78.4353 62.5029C78.2511 62.343 78.002 62.2155 77.6879 62.1204C77.3627 62.0219 77.0599 62.0007 76.7797 62.0567C76.5051 62.1143 76.2545 62.2343 76.0279 62.4167C75.8085 62.5952 75.6138 62.824 75.4436 63.103C75.2734 63.3821 75.1356 63.6955 75.0304 64.0431Z" fill="black"/>
<path d="M91.3969 71.5635C91.7021 71.6208 91.9836 71.6141 92.2413 71.5433C92.5001 71.4667 92.7158 71.3343 92.8883 71.1461C93.0676 70.9532 93.1877 70.7105 93.2486 70.4179L95.5895 70.8576C95.4604 71.513 95.175 72.0645 94.7332 72.5121C94.2925 72.954 93.7537 73.2671 93.117 73.4516C92.4812 73.6303 91.8035 73.652 91.0836 73.5168C90.358 73.3805 89.7473 73.1406 89.2514 72.797C88.7613 72.4546 88.3777 72.0367 88.1008 71.5435C87.8248 71.0446 87.6512 70.4933 87.5798 69.8896C87.5094 69.2802 87.5359 68.6473 87.6592 67.9908L87.7063 67.7403C87.8307 67.078 88.0357 66.4786 88.3213 65.9421C88.608 65.3997 88.9698 64.949 89.4069 64.5899C89.8451 64.2251 90.3547 63.9721 90.9357 63.8308C91.5166 63.6895 92.167 63.6865 92.8869 63.8217C93.6528 63.9656 94.2961 64.2384 94.8168 64.6403C95.3432 65.0433 95.7192 65.5491 95.9447 66.1578C96.177 66.7619 96.2263 67.4359 96.0925 68.1798L93.7516 67.7401C93.8043 67.4281 93.791 67.1334 93.7119 66.8563C93.6386 66.5802 93.4979 66.3451 93.29 66.151C93.0888 65.9523 92.8184 65.821 92.4786 65.7571C92.1158 65.689 91.8046 65.711 91.5451 65.8233C91.2866 65.9297 91.0692 66.1035 90.8927 66.3446C90.7173 66.5799 90.5724 66.8597 90.4578 67.184C90.3501 67.5036 90.2621 67.8448 90.194 68.2076L90.1469 68.4581C90.0788 68.8209 90.0364 69.1736 90.0197 69.5163C90.003 69.8589 90.0337 70.1717 90.1117 70.4546C90.1955 70.7387 90.3385 70.9772 90.5407 71.1702C90.7429 71.3632 91.0283 71.4943 91.3969 71.5635Z" fill="black"/>
<path d="M106.595 75.5787C105.859 75.5191 105.208 75.3489 104.643 75.0679C104.079 74.7812 103.609 74.411 103.234 73.9574C102.865 73.5042 102.595 72.9915 102.424 72.4191C102.253 71.841 102.194 71.2365 102.245 70.6058L102.273 70.2554C102.331 69.537 102.487 68.8883 102.739 68.3091C102.992 67.73 103.326 67.2368 103.741 66.8295C104.162 66.4227 104.656 66.1248 105.224 65.9356C105.793 65.7406 106.422 65.6711 107.111 65.7269C107.782 65.7813 108.369 65.9405 108.871 66.2046C109.373 66.4686 109.782 66.8192 110.099 67.2564C110.423 67.6941 110.651 68.2065 110.786 68.7935C110.921 69.3747 110.961 70.0127 110.904 70.7077L110.819 71.759L103.285 71.1486L103.422 69.4666L108.476 69.8761L108.492 69.6834C108.52 69.333 108.481 69.0153 108.375 68.7304C108.275 68.4402 108.106 68.2031 107.868 68.0192C107.631 67.8353 107.316 67.7276 106.925 67.6959C106.592 67.6689 106.3 67.7187 106.048 67.8453C105.797 67.9719 105.585 68.1605 105.412 68.411C105.245 68.662 105.108 68.9625 105.004 69.3126C104.905 69.6574 104.839 70.04 104.805 70.4605L104.776 70.8109C104.746 71.1905 104.77 71.5452 104.849 71.8749C104.934 72.2051 105.066 72.4951 105.246 72.7448C105.431 72.9949 105.662 73.1958 105.938 73.3475C106.219 73.4997 106.544 73.5906 106.912 73.6204C107.368 73.6573 107.798 73.604 108.204 73.4605C108.615 73.3117 108.979 73.0678 109.295 72.7289L110.413 74.1598C110.191 74.4299 109.898 74.6824 109.532 74.9173C109.172 75.1526 108.745 75.3356 108.253 75.4662C107.761 75.5909 107.208 75.6284 106.595 75.5787Z" fill="black"/>
<path d="M132.557 71.1705L131.695 62.3444L134.31 62.0889L135.172 70.915C135.255 71.7664 135.14 72.5165 134.827 73.1653C134.513 73.8083 134.048 74.3246 133.433 74.7144C132.823 75.1037 132.116 75.3376 131.311 75.4162C130.477 75.4977 129.726 75.4298 129.057 75.2126C128.388 74.9953 127.842 74.616 127.418 74.0746C126.994 73.5273 126.738 72.8075 126.651 71.9153L129.284 71.6581C129.33 72.1246 129.43 72.4886 129.585 72.7502C129.746 73.0112 129.955 73.188 130.211 73.2807C130.467 73.3734 130.767 73.403 131.111 73.3693C131.444 73.3369 131.725 73.2299 131.954 73.0486C132.184 72.8672 132.351 72.6183 132.455 72.302C132.566 71.985 132.6 71.6079 132.557 71.1705Z" fill="black"/>
<path d="M142.401 69.1443L142.363 68.9638C142.218 68.2817 142.183 67.6334 142.256 67.0189C142.328 66.3986 142.505 65.8369 142.787 65.3336C143.07 64.8304 143.458 64.4035 143.953 64.0529C144.446 63.6965 145.046 63.4435 145.751 63.2938C146.456 63.1441 147.109 63.1312 147.71 63.2551C148.31 63.3733 148.842 63.6049 149.304 63.95C149.773 64.2938 150.166 64.7344 150.483 65.272C150.8 65.8037 151.031 66.4107 151.175 67.0927L151.214 67.2733C151.357 67.9496 151.393 68.5979 151.321 69.2182C151.248 69.8327 151.068 70.3951 150.781 70.9053C150.498 71.4085 150.11 71.8354 149.615 72.186C149.121 72.5366 148.521 72.7868 147.816 72.9365C147.111 73.0862 146.458 73.1019 145.858 72.9837C145.264 72.8644 144.732 72.6328 144.264 72.2889C143.8 71.9382 143.41 71.4969 143.094 70.9651C142.776 70.4276 142.545 69.8207 142.401 69.1443ZM144.839 68.4381L144.878 68.6186C144.96 69.0084 145.072 69.365 145.213 69.6886C145.353 70.0121 145.525 70.2871 145.729 70.5133C145.937 70.7327 146.18 70.8878 146.457 70.9788C146.734 71.0697 147.05 71.0775 147.405 71.002C147.749 70.929 148.029 70.7947 148.245 70.5991C148.461 70.4035 148.617 70.1637 148.712 69.8799C148.807 69.5904 148.852 69.2692 148.849 68.9164C148.852 68.5624 148.812 68.1906 148.729 67.8008L148.691 67.6203C148.611 67.242 148.498 66.8945 148.353 66.5779C148.212 66.2544 148.037 65.9801 147.828 65.755C147.623 65.523 147.381 65.3586 147.103 65.2619C146.825 65.1652 146.511 65.154 146.161 65.2282C145.812 65.3025 145.529 65.4403 145.315 65.6416C145.106 65.8418 144.952 66.0901 144.853 66.3866C144.759 66.6761 144.713 66.9973 144.716 67.3501C144.718 67.6971 144.759 68.0598 144.839 68.4381Z" fill="black"/>
<path d="M164.197 65.9111L161.914 59.0473L164.316 58.2485L167.317 67.2724L165.057 68.024L164.197 65.9111ZM163.848 63.9709L164.552 63.7185C164.751 64.3189 164.868 64.9008 164.9 65.4641C164.932 66.0219 164.871 66.536 164.719 67.0065C164.565 67.4715 164.311 67.8799 163.959 68.2317C163.605 68.5779 163.142 68.8463 162.569 69.0367C162.13 69.1828 161.703 69.2566 161.29 69.2582C160.881 69.2523 160.498 69.1603 160.143 68.9822C159.791 68.7967 159.469 68.5176 159.179 68.1449C158.892 67.7649 158.648 67.2746 158.449 66.6741L156.51 60.8445L158.912 60.0457L160.856 65.8921C160.945 66.1589 161.05 66.374 161.173 66.5371C161.3 66.6984 161.442 66.818 161.598 66.8959C161.753 66.9739 161.917 67.012 162.089 67.0102C162.267 67.0067 162.454 66.9725 162.648 66.9078C163.143 66.7432 163.499 66.5137 163.716 66.2193C163.939 65.923 164.051 65.583 164.053 65.1995C164.059 64.8085 163.991 64.399 163.848 63.9709Z" fill="black"/>
<path d="M174.11 56.4806L177.134 63.2733L174.822 64.3029L170.954 55.6153L173.13 54.6465L174.11 56.4806ZM175.859 53.3641L176.773 55.5258C176.653 55.5598 176.511 55.6071 176.346 55.6679C176.183 55.721 176.038 55.7761 175.909 55.8333C175.583 55.9787 175.318 56.1478 175.115 56.3407C174.916 56.5259 174.771 56.7345 174.682 56.9666C174.598 57.1963 174.568 57.4441 174.59 57.71C174.617 57.9736 174.691 58.2549 174.812 58.5541L174.282 58.6169C174.031 58.0549 173.858 57.5133 173.76 56.9922C173.661 56.4658 173.639 55.9782 173.696 55.5296C173.758 55.0786 173.904 54.6865 174.134 54.3531C174.364 54.0198 174.683 53.7626 175.09 53.5815C175.218 53.5243 175.354 53.4766 175.497 53.4384C175.638 53.3949 175.759 53.3701 175.859 53.3641Z" fill="black"/>
<path d="M184.345 51.371L188.04 57.874L185.84 59.1245L181.141 50.8564L183.205 49.684L184.345 51.371ZM185.205 53.6319L184.609 53.9706C184.262 53.3593 184.028 52.7642 183.908 52.1854C183.785 51.6015 183.768 51.0553 183.857 50.5468C183.942 50.0332 184.129 49.5732 184.417 49.1669C184.707 48.7526 185.097 48.4065 185.586 48.1286C185.973 47.9086 186.359 47.7635 186.744 47.6932C187.128 47.6229 187.505 47.6449 187.873 47.7591C188.246 47.8705 188.608 48.0927 188.959 48.4256C189.315 48.7557 189.658 49.2111 189.988 49.7919L192.985 55.0645L190.768 56.3238L187.768 51.0435C187.56 50.6767 187.347 50.4204 187.129 50.2745C186.911 50.1286 186.68 50.0714 186.435 50.1028C186.192 50.1262 185.928 50.2189 185.643 50.381C185.347 50.5489 185.123 50.7537 184.971 50.9954C184.823 51.2341 184.738 51.4984 184.714 51.7884C184.692 52.0703 184.724 52.3691 184.809 52.6847C184.894 53.0003 185.026 53.3161 185.205 53.6319Z" fill="black"/>
<path d="M202.708 45.9683L200.229 42.533C200.05 42.2859 199.857 42.1036 199.65 41.9861C199.439 41.8638 199.212 41.8145 198.969 41.8381C198.73 41.8584 198.478 41.9645 198.212 42.1565C197.984 42.3211 197.816 42.5037 197.708 42.7045C197.596 42.9005 197.549 43.1048 197.565 43.3172C197.577 43.5249 197.654 43.7261 197.794 43.921L195.742 45.4021C195.505 45.0743 195.357 44.7082 195.296 44.3039C195.236 43.8996 195.27 43.4812 195.398 43.0487C195.524 42.6115 195.74 42.1848 196.046 41.7685C196.357 41.3487 196.763 40.9589 197.261 40.5989C197.86 40.1668 198.464 39.8826 199.074 39.7462C199.684 39.6097 200.265 39.6451 200.82 39.8522C201.378 40.0559 201.874 40.4571 202.306 41.0557L204.687 44.3556C204.992 44.7785 205.269 45.1065 205.516 45.3396C205.761 45.568 206.005 45.746 206.248 45.8735L206.336 45.9947L204.262 47.4913C204.011 47.3542 203.747 47.1478 203.468 46.8719C203.191 46.5878 202.937 46.2866 202.708 45.9683ZM200.844 42.815L201.697 43.9665L200.549 44.7945C200.278 44.9899 200.065 45.1906 199.91 45.3963C199.755 45.6021 199.655 45.8083 199.609 46.0149C199.559 46.2168 199.557 46.4136 199.602 46.6055C199.651 46.7939 199.739 46.9761 199.866 47.1519C199.993 47.3277 200.148 47.4577 200.331 47.5419C200.512 47.6215 200.707 47.6467 200.917 47.6178C201.124 47.5841 201.33 47.4935 201.534 47.3461C201.843 47.1232 202.067 46.8678 202.206 46.5796C202.345 46.2915 202.411 46.0126 202.404 45.7429C202.402 45.4698 202.345 45.2507 202.233 45.0857L203.402 45.5644C203.467 45.8141 203.508 46.0914 203.526 46.3965C203.549 46.6981 203.527 47.0136 203.461 47.3429C203.392 47.6675 203.26 47.9903 203.065 48.3114C202.867 48.6277 202.576 48.9247 202.191 49.2025C201.701 49.5556 201.187 49.7788 200.647 49.872C200.109 49.957 199.598 49.9101 199.115 49.7312C198.633 49.5442 198.231 49.2274 197.909 48.7807C197.617 48.3769 197.435 47.9633 197.36 47.5399C197.286 47.1166 197.319 46.6918 197.459 46.2654C197.601 45.8308 197.856 45.3977 198.223 44.9661C198.588 44.5298 199.065 44.0991 199.654 43.6739L200.844 42.815Z" fill="black"/>
<path d="M205.069 29.5167L213.893 39.7331L211.971 41.3935L203.147 31.1771L205.069 29.5167Z" fill="black"/>
<path d="M214.586 26.0235L221.289 32.7685L219.488 34.5591L212.784 27.8141L214.586 26.0235ZM210.925 26.1677C210.664 25.9058 210.541 25.5989 210.555 25.2467C210.568 24.8946 210.729 24.5657 211.036 24.26C211.34 23.9585 211.667 23.8021 212.02 23.7907C212.376 23.7752 212.684 23.8984 212.944 24.1602C213.205 24.4221 213.326 24.7311 213.308 25.0874C213.295 25.4395 213.136 25.7663 212.833 26.0679C212.525 26.3735 212.196 26.532 211.843 26.5434C211.491 26.5547 211.185 26.4295 210.925 26.1677Z" fill="black"/>
<path d="M227.794 21.6927C227.655 21.5756 227.495 21.51 227.316 21.4961C227.136 21.4822 226.906 21.5453 226.627 21.6853C226.347 21.8171 225.995 22.0527 225.57 22.3921C225.18 22.6912 224.79 22.9487 224.4 23.1645C224.01 23.3721 223.63 23.5186 223.259 23.604C222.891 23.6849 222.534 23.6902 222.187 23.6197C221.836 23.5454 221.506 23.3779 221.197 23.1171C220.892 22.8601 220.661 22.5533 220.502 22.1967C220.346 21.8356 220.27 21.445 220.272 21.0248C220.273 20.5965 220.366 20.1541 220.552 19.6976C220.738 19.2329 221.021 18.7744 221.403 18.3222C221.936 17.6909 222.494 17.2342 223.077 16.9521C223.664 16.6654 224.237 16.5505 224.794 16.6074C225.351 16.6559 225.854 16.8692 226.302 17.2471L224.669 19.1814C224.481 19.0226 224.279 18.9212 224.063 18.877C223.847 18.8246 223.626 18.8454 223.401 18.9392C223.175 19.0248 222.953 19.1975 222.734 19.4571C222.552 19.6721 222.433 19.89 222.377 20.111C222.317 20.3281 222.313 20.5322 222.367 20.7231C222.42 20.9057 222.52 21.0594 222.668 21.1841C222.78 21.2786 222.899 21.3413 223.026 21.3721C223.153 21.3947 223.298 21.3824 223.46 21.3355C223.622 21.2885 223.807 21.2064 224.013 21.0892C224.219 20.9637 224.454 20.7941 224.718 20.5805C225.268 20.1473 225.804 19.7985 226.326 19.534C226.844 19.2657 227.353 19.1354 227.853 19.1431C228.348 19.147 228.833 19.3493 229.307 19.7499C229.63 20.022 229.865 20.3431 230.012 20.7132C230.16 21.0832 230.221 21.4876 230.196 21.9263C230.166 22.3613 230.048 22.814 229.843 23.2846C229.637 23.747 229.337 24.211 228.944 24.6766C228.373 25.3527 227.769 25.8237 227.13 26.0898C226.495 26.3513 225.89 26.4461 225.314 26.3742C224.738 26.294 224.252 26.0876 223.858 25.755L225.406 23.9215C225.678 24.1355 225.947 24.2479 226.214 24.2586C226.485 24.2648 226.739 24.1997 226.977 24.0632C227.219 23.9222 227.438 23.7352 227.635 23.5024C227.846 23.2517 227.989 23.0151 228.061 22.7928C228.129 22.5666 228.141 22.3619 228.097 22.1786C228.051 21.987 227.95 21.825 227.794 21.6927Z" fill="black"/>
<path d="M230.826 6.18257L232.299 7.20491L229.142 11.7537L227.669 10.7314L230.826 6.18257ZM226.523 8.26693L227.966 6.18748L235.352 11.3142C235.579 11.4712 235.772 11.5626 235.932 11.5884C236.096 11.6093 236.244 11.5764 236.375 11.4894C236.502 11.3992 236.629 11.2626 236.756 11.0797C236.846 10.9497 236.922 10.8308 236.982 10.7231C237.041 10.6071 237.089 10.5081 237.124 10.4258L238.66 11.481C238.594 11.6992 238.506 11.9235 238.396 12.1539C238.286 12.3843 238.145 12.6246 237.971 12.8749C237.653 13.3322 237.301 13.6799 236.915 13.9181C236.527 14.1481 236.101 14.2377 235.637 14.1867C235.173 14.1358 234.667 13.9199 234.118 13.539L226.523 8.26693Z" fill="black"/>
</svg>
