<svg width="51" height="50" viewBox="0 0 51 50" fill="none" xmlns="http://www.w3.org/2000/svg">
<path d="M25.4872 31.2125C29.0115 31.2125 31.8686 28.4114 31.8686 24.9562C31.8686 21.501 29.0115 18.7 25.4872 18.7C21.9629 18.7 19.1058 21.501 19.1058 24.9562C19.1058 28.4114 21.9629 31.2125 25.4872 31.2125Z" fill="black"/>
<path d="M44.5124 17.3021C44.491 15.7242 44.1897 14.1621 43.622 12.6854C43.1298 11.4399 42.3779 10.3088 41.4145 9.36426C40.4511 8.41975 39.2973 7.68264 38.0269 7.20003C36.5401 6.65286 34.9694 6.35699 33.3816 6.32503C31.3374 6.23545 30.6893 6.21045 25.5 6.21045C20.3108 6.21045 19.6457 6.21045 17.6163 6.32503C16.0292 6.35723 14.4593 6.65309 12.9732 7.20003C11.7025 7.6823 10.5486 8.41929 9.58512 9.36385C8.62167 10.3084 7.86994 11.4397 7.37803 12.6854C6.81879 14.142 6.51766 15.6815 6.48765 17.2375C6.39628 19.2438 6.36865 19.8792 6.36865 24.9667C6.36865 30.0542 6.36865 30.7042 6.48765 32.6959C6.51953 34.2542 6.81915 35.7917 7.37803 37.2521C7.87077 38.4974 8.62306 39.6283 9.58683 40.5725C10.5506 41.5166 11.7047 42.2533 12.9753 42.7355C14.4573 43.3046 16.0276 43.6217 17.6184 43.6729C19.6648 43.7625 20.3129 43.7896 25.5022 43.7896C30.6914 43.7896 31.3565 43.7896 33.3859 43.6729C34.9736 43.6423 36.5444 43.3471 38.0311 42.8C39.3012 42.3169 40.4547 41.5796 41.4181 40.6351C42.3814 39.6907 43.1334 38.5598 43.6263 37.3146C44.1852 35.8563 44.4848 34.3188 44.5166 32.7584C44.608 30.7542 44.6356 30.1188 44.6356 25.0292C44.6314 19.9417 44.6314 19.2959 44.5124 17.3021ZM25.4873 34.5875C20.06 34.5875 15.6634 30.2771 15.6634 24.9563C15.6634 19.6354 20.06 15.325 25.4873 15.325C28.0927 15.325 30.5915 16.3398 32.4338 18.146C34.2761 19.9522 35.3112 22.4019 35.3112 24.9563C35.3112 27.5106 34.2761 29.9604 32.4338 31.7666C30.5915 33.5728 28.0927 34.5875 25.4873 34.5875ZM35.7022 17.2146C35.4012 17.2149 35.1032 17.157 34.8252 17.0442C34.5471 16.9315 34.2945 16.766 34.0817 16.5574C33.869 16.3488 33.7002 16.1012 33.5852 15.8285C33.4702 15.5559 33.4111 15.2638 33.4114 14.9688C33.4114 14.674 33.4706 14.3821 33.5857 14.1097C33.7008 13.8374 33.8694 13.5899 34.082 13.3815C34.2947 13.173 34.5471 13.0077 34.8249 12.8949C35.1027 12.7821 35.4004 12.724 35.7011 12.724C36.0018 12.724 36.2995 12.7821 36.5773 12.8949C36.8551 13.0077 37.1075 13.173 37.3201 13.3815C37.5328 13.5899 37.7014 13.8374 37.8165 14.1097C37.9316 14.3821 37.9908 14.674 37.9908 14.9688C37.9908 16.2104 36.9665 17.2146 35.7022 17.2146Z" fill="black"/>
</svg>
