<?xml version="1.0" standalone="no"?>
<!DOCTYPE svg PUBLIC "-//W3C//DTD SVG 20010904//EN"
 "http://www.w3.org/TR/2001/REC-SVG-20010904/DTD/svg10.dtd">
<svg version="1.0" xmlns="http://www.w3.org/2000/svg"
 width="430.000000pt" height="120.000000pt" viewBox="0 0 430.000000 120.000000"
 preserveAspectRatio="xMidYMid meet">
<metadata>
Created by potrace 1.15, written by Peter Selinger 2001-2017
</metadata>
<g transform="translate(0.000000,120.000000) scale(0.100000,-0.100000)"
fill="#000000" stroke="none">
<path d="M255 858 c-3 -8 -4 -77 -3 -153 l3 -140 85 0 c69 0 85 3 85 15 0 11
-15 16 -62 18 l-62 3 -3 132 c-3 116 -5 132 -21 135 -9 2 -19 -3 -22 -10z"/>
<path d="M591 851 c-14 -25 -131 -283 -131 -287 0 -2 9 -4 20 -4 13 0 26 12
37 35 l17 35 71 0 71 0 17 -35 c11 -24 24 -35 38 -35 11 0 19 4 17 9 -20 55
-135 301 -140 301 -4 0 -12 -9 -17 -19z m44 -127 c14 -31 25 -58 25 -60 0 -2
-25 -4 -55 -4 -30 0 -55 2 -55 4 0 8 52 116 56 116 2 0 15 -25 29 -56z"/>
<path d="M885 856 c-56 -25 -95 -85 -95 -143 0 -15 9 -45 20 -68 38 -78 145
-109 219 -64 30 18 32 22 19 36 -14 13 -19 13 -46 -1 -39 -20 -65 -20 -102 -1
-34 17 -60 62 -60 100 0 38 26 83 60 100 37 19 63 19 102 -1 27 -14 32 -14 45
-1 14 13 12 17 -11 33 -35 22 -113 28 -151 10z"/>
<path d="M1140 760 c0 -119 10 -155 52 -184 31 -22 96 -20 135 4 43 26 55 72
51 190 -3 87 -5 95 -23 95 -19 0 -20 -8 -23 -110 -2 -96 -5 -112 -24 -132 -23
-24 -57 -29 -88 -13 -28 15 -40 65 -40 166 0 87 -1 94 -20 94 -19 0 -20 -7
-20 -110z"/>
<path d="M1482 718 c3 -145 4 -153 23 -153 18 0 20 8 25 105 l5 105 90 -107
c49 -60 95 -108 103 -108 10 0 12 33 10 153 -3 144 -4 152 -23 152 -18 0 -20
-8 -25 -104 l-5 -103 -90 106 c-49 58 -95 106 -103 106 -10 0 -12 -33 -10
-152z"/>
<path d="M1931 851 c-14 -25 -131 -283 -131 -287 0 -2 9 -4 20 -4 13 0 26 12
37 35 l17 35 71 0 71 0 17 -35 c11 -24 24 -35 38 -35 11 0 19 4 17 9 -19 53
-134 301 -140 301 -4 0 -12 -9 -17 -19z m44 -127 c14 -31 25 -58 25 -60 0 -8
-99 -4 -103 4 -4 7 41 112 49 112 2 0 15 -25 29 -56z"/>
<path d="M2237 863 c-7 -11 126 -302 138 -303 6 0 38 62 72 138 82 181 79 172
54 172 -22 0 -37 -26 -108 -190 l-15 -35 -44 95 c-24 52 -48 102 -53 110 -9
17 -37 25 -44 13z"/>
<path d="M2651 848 c-76 -52 -99 -125 -62 -200 29 -59 63 -81 131 -86 45 -3
61 0 89 20 47 32 73 78 73 133 0 86 -56 145 -144 153 -44 3 -59 0 -87 -20z
m132 -36 c41 -28 56 -53 57 -95 0 -96 -108 -151 -179 -92 -64 54 -59 142 11
185 41 25 75 25 111 2z"/>
<path d="M2965 858 c-3 -8 -4 -77 -3 -153 3 -137 3 -140 26 -143 l23 -3 -3
153 c-3 136 -5 153 -21 156 -9 2 -19 -3 -22 -10z"/>
<path d="M3195 856 c-56 -25 -95 -85 -95 -143 0 -15 9 -45 20 -68 38 -78 145
-109 219 -64 30 18 32 22 19 36 -14 13 -19 13 -46 -1 -39 -20 -65 -20 -102 -1
-34 17 -60 62 -60 100 0 38 26 83 60 100 37 19 63 19 102 -1 27 -14 32 -14 45
-1 14 13 12 17 -11 33 -35 22 -113 28 -151 10z"/>
<path d="M3454 857 c-2 -7 -3 -76 -2 -152 l3 -140 93 -3 c87 -3 92 -2 92 18 0
18 -6 20 -70 20 l-70 0 0 50 0 50 60 0 c53 0 60 2 60 20 0 18 -7 20 -60 20
l-60 0 0 45 0 45 70 0 c63 0 70 2 70 20 0 19 -7 20 -90 20 -65 0 -92 -4 -96
-13z"/>
<path d="M3744 847 c-19 -17 -27 -33 -27 -56 0 -38 23 -64 90 -100 50 -27 63
-52 43 -76 -16 -19 -70 -19 -96 -1 -13 10 -23 11 -31 4 -20 -16 -16 -26 17
-43 44 -23 104 -19 134 8 57 51 38 103 -59 155 -27 15 -51 35 -53 45 -6 29 18
49 52 44 17 -3 40 -7 51 -9 30 -5 30 26 0 40 -42 19 -91 15 -121 -11z"/>
</g>
</svg>
