<svg width="46" height="45" viewBox="0 0 46 45" fill="none" xmlns="http://www.w3.org/2000/svg">
<path d="M23 0.899902C10.8054 0.899902 0.920044 10.5704 0.920044 22.4999C0.920044 34.4294 10.8054 44.0999 23 44.0999C35.1946 44.0999 45.08 34.4294 45.08 22.4999C45.08 10.5704 35.1946 0.899902 23 0.899902ZM17.595 31.4527H13.1238V17.3767H17.595V31.4527ZM15.3318 15.6487C13.9196 15.6487 13.0065 14.6699 13.0065 13.4594C13.0065 12.2242 13.9472 11.2747 15.3893 11.2747C16.8314 11.2747 17.7146 12.2242 17.7422 13.4594C17.7422 14.6699 16.8314 15.6487 15.3318 15.6487ZM33.925 31.4527H29.4538V23.6519C29.4538 21.8362 28.8052 20.6032 27.1883 20.6032C25.9532 20.6032 25.2195 21.4379 24.8952 22.2412C24.7756 22.5269 24.7457 22.9319 24.7457 23.3347V31.4504H20.2722V21.8654C20.2722 20.1082 20.2147 18.6389 20.1549 17.3744H24.0396L24.2443 19.3297H24.334C24.9228 18.4117 26.3649 17.0572 28.7776 17.0572C31.7193 17.0572 33.925 18.9854 33.925 23.1299V31.4527Z" fill="black"/>
</svg>
