<?xml version="1.0" standalone="no"?>
<!DOCTYPE svg PUBLIC "-//W3C//DTD SVG 20010904//EN"
 "http://www.w3.org/TR/2001/REC-SVG-20010904/DTD/svg10.dtd">
<svg version="1.0" xmlns="http://www.w3.org/2000/svg"
 width="304.000000pt" height="242.000000pt" viewBox="0 0 304.000000 242.000000"
 preserveAspectRatio="xMidYMid meet">
<metadata>
Created by potrace 1.15, written by Peter Selinger 2001-2017
</metadata>
<g transform="translate(0.000000,242.000000) scale(0.100000,-0.100000)"
fill="#000000" stroke="none">
<path d="M1233 1993 c-16 -3 -23 -11 -23 -28 0 -12 -7 -26 -16 -29 -14 -5 -15
-15 -10 -57 5 -36 2 -65 -9 -99 -17 -52 -17 -139 0 -130 10 5 10 13 0 65 -3
19 -2 23 3 12 6 -14 10 -8 20 29 19 71 25 46 11 -47 -15 -101 -6 -252 17 -287
l16 -24 151 6 c84 4 193 9 242 12 64 4 87 3 80 -5 -6 -6 -71 -12 -160 -14
l-150 -3 151 -2 c113 -1 154 1 162 11 6 7 16 42 21 77 14 84 15 298 1 284 -5
-5 -10 -42 -11 -82 -1 -39 -5 -69 -10 -66 -5 3 -9 -6 -9 -19 0 -20 -4 -24 -20
-20 -11 3 -17 9 -14 14 3 5 2 8 -3 7 -4 -2 -10 1 -13 6 -3 5 6 11 20 13 31 5
41 15 31 31 -6 11 -57 13 -231 12 -155 0 -226 3 -236 11 -10 8 -14 36 -14 95
l0 84 85 0 c67 0 85 -3 85 -14 0 -30 -14 -47 -48 -62 -31 -13 -34 -16 -21 -29
34 -35 168 -42 263 -14 l40 11 -42 35 c-39 32 -42 38 -36 71 7 35 6 35 -23 29
-17 -3 -34 -2 -39 3 -5 4 -47 3 -95 -3 -85 -10 -126 -6 -114 13 8 13 415 14
415 0 0 -5 -30 -11 -67 -13 l-68 -3 72 -2 c60 -2 71 -5 67 -17 -4 -9 0 -15 10
-15 9 0 20 -14 26 -32 9 -32 10 -31 5 10 -4 33 -2 42 10 42 19 0 20 51 3 83
-34 60 -21 57 -272 56 -127 -1 -241 -4 -253 -6z m498 -30 c7 -19 7 -41 1 -68
-10 -40 -10 -39 -11 23 l-1 62 -235 0 c-213 0 -235 -2 -235 -17 0 -9 -3 -14
-6 -10 -4 3 -4 13 -1 22 6 13 39 15 242 15 l235 0 11 -27z m-138 0 c-57 -2
-149 -2 -205 0 -57 1 -11 3 102 3 113 0 159 -2 103 -3z m102 -33 c0 -22 -166
-27 -185 -5 -15 18 -31 20 -27 3 1 -10 -25 -13 -103 -14 -58 -1 -109 1 -113 3
-4 3 -3 11 4 19 18 22 424 16 424 -6z m-486 -100 c-12 -44 -23 -79 -25 -77 -2
2 6 43 18 91 12 48 24 83 26 77 2 -5 -7 -46 -19 -91z m548 68 c-3 -7 -5 -2 -5
12 0 14 2 19 5 13 2 -7 2 -19 0 -25z m-554 2 c-3 -11 -7 -20 -9 -20 -2 0 -4 9
-4 20 0 11 4 20 9 20 5 0 7 -9 4 -20z m47 -30 c0 -5 -4 -10 -10 -10 -5 0 -10
5 -10 10 0 6 5 10 10 10 6 0 10 -4 10 -10z m180 -44 c0 -3 -4 -8 -10 -11 -5
-3 -10 -1 -10 4 0 6 5 11 10 11 6 0 10 -2 10 -4z m98 -13 c-6 -8 -17 -12 -24
-9 -7 3 -16 1 -19 -4 -4 -6 -11 -10 -16 -10 -6 0 -7 5 -3 11 4 8 0 9 -15 4
-11 -3 -21 -4 -21 0 0 10 40 21 75 21 28 0 32 -3 23 -13z m-128 -63 c0 -5 -4
-10 -10 -10 -5 0 -10 5 -10 10 0 6 5 10 10 10 6 0 10 -4 10 -10z m-155 -100
c3 -5 1 -10 -4 -10 -6 0 -11 5 -11 10 0 6 2 10 4 10 3 0 8 -4 11 -10z m450
-10 c-4 -6 -88 -10 -221 -10 -136 0 -214 4 -214 10 0 6 80 10 221 10 144 0
218 -3 214 -10z m-435 -33 c0 -5 6 -4 14 2 10 8 16 9 21 1 3 -5 0 -13 -9 -16
-8 -3 -14 -14 -13 -24 1 -21 17 -16 17 6 0 8 5 14 10 14 6 0 10 7 10 16 0 8 5
12 10 9 6 -4 8 -11 5 -16 -4 -5 -1 -9 4 -9 6 0 11 8 11 18 1 16 1 16 14 0 14
-19 28 -24 24 -9 -2 5 2 9 7 9 6 0 9 -4 8 -9 -2 -5 2 -9 8 -9 6 0 9 -9 6 -20
-5 -18 0 -20 44 -20 27 0 49 5 49 10 0 6 5 10 11 10 5 0 7 -4 4 -10 -3 -5 -1
-10 4 -10 6 0 11 5 11 10 0 6 5 10 11 10 5 0 7 -4 4 -10 -3 -5 -2 -10 4 -10 5
0 13 5 16 10 3 6 11 10 16 10 6 0 7 -4 4 -10 -3 -5 -2 -10 4 -10 5 0 12 6 15
13 5 9 7 9 12 -1 7 -14 24 -6 24 11 0 9 -28 12 -97 11 -69 -1 -97 -4 -95 -12
4 -19 -12 -14 -26 9 -10 15 -11 24 -3 32 8 8 11 6 11 -6 0 -9 5 -17 10 -17 5
0 9 4 8 9 -2 5 2 9 7 9 6 0 9 -4 8 -9 -5 -15 9 -10 23 9 13 16 13 16 14 0 0
-10 5 -18 10 -18 5 0 9 3 8 8 -2 4 2 7 7 7 6 0 9 -3 8 -7 -5 -14 10 -8 23 10
13 16 13 16 14 0 0 -10 5 -18 10 -18 5 0 9 3 8 8 -2 4 2 7 7 7 6 0 9 -3 8 -7
-5 -14 10 -8 23 10 13 16 13 16 14 0 0 -10 5 -18 11 -18 5 0 8 -4 5 -8 -2 -4
-1 -14 5 -22 6 -10 9 -11 9 -2 0 20 31 14 37 -8 3 -11 9 -20 14 -20 5 0 9 -5
9 -11 0 -8 -6 -7 -17 2 -22 19 -213 21 -220 2 -3 -7 -10 -13 -15 -13 -6 0 -8
6 -5 13 3 9 -4 13 -21 12 -14 0 -27 -6 -30 -12 -2 -7 -8 -13 -14 -13 -6 0 -8
6 -5 13 3 9 -4 13 -21 12 -14 0 -27 -6 -30 -12 -2 -7 -8 -13 -14 -13 -6 0 -8
6 -5 13 5 14 -65 18 -79 4 -5 -4 -1 -5 9 -1 9 3 17 2 17 -4 0 -15 -30 -23 -35
-9 -2 6 -6 33 -9 58 -4 36 -2 46 9 46 8 0 15 -5 15 -10z m46 -93 c-3 -8 -2
-13 2 -11 4 3 13 -1 19 -8 10 -11 9 -15 -6 -20 -25 -8 -73 4 -65 16 3 5 9 7
14 4 5 -3 11 4 15 15 3 11 11 20 17 20 5 0 7 -7 4 -16z m74 6 c0 -5 -4 -10
-10 -10 -5 0 -10 5 -10 10 0 6 5 10 10 10 6 0 10 -4 10 -10z m70 0 c0 -5 -2
-10 -4 -10 -3 0 -8 5 -11 10 -3 6 -1 10 4 10 6 0 11 -4 11 -10z m70 0 c0 -5
-4 -10 -10 -10 -5 0 -10 5 -10 10 0 6 5 10 10 10 6 0 10 -4 10 -10z m40 0 c0
-5 -4 -10 -10 -10 -5 0 -10 5 -10 10 0 6 5 10 10 10 6 0 10 -4 10 -10z m30 0
c0 -5 -4 -10 -10 -10 -5 0 -10 5 -10 10 0 6 5 10 10 10 6 0 10 -4 10 -10z m40
0 c0 -5 -4 -10 -10 -10 -5 0 -10 5 -10 10 0 6 5 10 10 10 6 0 10 -4 10 -10z
m30 0 c0 -5 -4 -10 -10 -10 -5 0 -10 5 -10 10 0 6 5 10 10 10 6 0 10 -4 10
-10z m40 0 c0 -5 -4 -10 -10 -10 -5 0 -10 5 -10 10 0 6 5 10 10 10 6 0 10 -4
10 -10z m-325 -30 c3 -5 1 -10 -4 -10 -6 0 -11 5 -11 10 0 6 2 10 4 10 3 0 8
-4 11 -10z m35 0 c0 -5 -5 -10 -11 -10 -5 0 -7 5 -4 10 3 6 8 10 11 10 2 0 4
-4 4 -10z m35 0 c3 -5 1 -10 -4 -10 -6 0 -11 5 -11 10 0 6 2 10 4 10 3 0 8 -4
11 -10z m70 0 c3 -5 1 -10 -4 -10 -6 0 -11 5 -11 10 0 6 2 10 4 10 3 0 8 -4
11 -10z m144 -9 c9 -16 7 -18 -14 -18 -21 0 -22 2 -12 18 7 11 13 19 14 19 1
0 7 -8 12 -19z m-388 -51 c16 0 29 -4 29 -10 0 -5 -13 -10 -30 -10 -31 0 -51
23 -49 57 0 12 4 9 11 -9 7 -22 16 -28 39 -28z m25 18 c4 -5 -6 -8 -22 -6 -15
2 -29 8 -31 14 -5 14 44 6 53 -8z m302 6 c43 -5 54 -17 26 -28 -9 -3 -80 -6
-159 -6 -143 0 -176 8 -141 33 16 12 184 13 274 1z m132 12 c0 -23 -17 -36
-46 -36 -41 0 -44 12 -6 27 29 12 52 16 52 9z"/>
<path d="M1368 1933 c6 -2 18 -2 25 0 6 3 1 5 -13 5 -14 0 -19 -2 -12 -5z"/>
<path d="M1304 1579 c-2 -4 4 -13 13 -20 12 -10 14 -10 9 -1 -4 6 -2 12 3 12
6 0 11 -4 11 -8 0 -4 11 -9 25 -10 14 -1 25 3 25 8 0 6 0 12 0 15 0 3 -3 4 -7
3 -5 -2 -7 -6 -5 -10 1 -5 -2 -8 -8 -8 -5 0 -10 6 -10 14 0 14 -48 18 -56 5z"/>
<path d="M1580 1850 c14 -9 118 -15 109 -6 -2 2 -31 6 -64 10 -40 3 -55 2 -45
-4z"/>
<path d="M1150 1141 c0 -110 -3 -151 -12 -154 -7 -3 12 -6 42 -6 l55 -1 -2 87
c-1 49 -2 118 -3 156 l0 67 -40 0 -40 0 0 -149z"/>
<path d="M2446 1262 c-9 -26 2 -49 24 -55 28 -7 52 15 48 44 -4 32 -63 41 -72
11z"/>
<path d="M246 1247 c-19 -19 -26 -37 -26 -65 0 -50 22 -73 98 -100 68 -25 83
-51 51 -83 -14 -14 -15 -19 -5 -19 8 0 26 14 40 31 54 64 23 135 -68 158 -65
16 -93 50 -64 79 6 6 9 14 5 18 -3 3 -17 -5 -31 -19z"/>
<path d="M342 1260 c9 -6 28 -25 42 -43 l26 -32 0 40 0 40 -43 2 c-32 2 -38 0
-25 -7z"/>
<path d="M1488 1134 c3 -106 1 -139 -10 -145 -8 -5 13 -8 52 -8 36 0 59 3 53
6 -9 3 -13 27 -13 69 l0 64 40 0 40 0 0 -64 c0 -42 -4 -66 -12 -69 -7 -3 16
-5 52 -5 36 0 59 2 53 5 -10 3 -13 42 -13 144 l0 139 -40 0 -40 0 0 -70 0 -70
-40 0 -40 0 0 70 0 70 -42 0 -43 0 3 -136z"/>
<path d="M492 1164 c-26 -18 -26 -51 0 -68 27 -17 50 12 42 52 -7 37 -11 38
-42 16z"/>
<path d="M566 1088 c1 -90 2 -93 28 -106 21 -11 31 -11 53 0 15 7 29 22 30 33
1 16 1 16 -3 3 -11 -37 -21 -15 -26 54 -5 59 -10 75 -28 90 -12 10 -30 18 -39
18 -14 0 -16 -12 -15 -92z"/>
<path d="M709 1173 c0 -5 0 -46 1 -92 1 -60 -2 -86 -12 -92 -8 -5 13 -9 52 -9
39 0 60 4 52 9 -9 6 -13 30 -12 82 3 95 -3 109 -46 109 -19 0 -34 -3 -35 -7z"/>
<path d="M810 1170 c-12 -8 -10 -10 10 -10 19 0 21 -3 12 -12 -7 -7 -12 -20
-12 -30 0 -13 8 -18 30 -18 17 0 30 4 30 9 0 5 3 16 6 24 6 18 -21 47 -44 47
-9 0 -24 -5 -32 -10z"/>
<path d="M932 1164 c-42 -29 -16 -88 28 -64 16 9 20 18 16 33 -3 12 -6 28 -6
35 0 16 -11 15 -38 -4z"/>
<path d="M1000 1155 c5 -14 9 -55 7 -92 -2 -66 -1 -68 27 -81 22 -11 34 -12
53 -3 21 10 22 13 10 25 -9 9 -15 38 -16 78 -1 69 -21 98 -67 98 -21 0 -22 -3
-14 -25z"/>
<path d="M1253 1173 c-7 -2 -13 -9 -13 -14 0 -6 5 -7 11 -3 19 12 29 -19 29
-93 0 -48 -4 -73 -12 -76 -7 -3 14 -5 47 -5 33 0 54 2 48 5 -9 3 -13 30 -13
82 0 63 -4 81 -18 94 -18 16 -54 21 -79 10z"/>
<path d="M1812 1164 c-41 -29 -16 -88 27 -64 22 11 28 35 11 45 -5 3 -7 12 -3
20 7 19 -7 19 -35 -1z"/>
<path d="M1878 1099 c4 -88 -4 -130 -18 -94 -4 11 -4 30 1 43 8 19 5 22 -19
22 -42 0 -64 -21 -60 -55 4 -35 50 -53 82 -31 16 10 24 10 47 -1 21 -11 33
-11 55 -2 23 10 25 13 12 16 -15 4 -18 16 -18 78 0 65 -3 76 -22 89 -12 9 -32
16 -43 16 -19 0 -20 -5 -17 -81z"/>
<path d="M2029 1173 c0 -5 0 -46 1 -92 1 -60 -2 -86 -12 -92 -8 -5 14 -8 52
-8 36 1 57 3 48 6 -34 9 -17 173 18 173 16 0 19 -16 4 -25 -16 -10 1 -35 26
-35 46 0 53 65 8 76 -15 4 -34 0 -49 -10 -22 -14 -25 -15 -25 -1 0 11 -10 15
-35 15 -19 0 -35 -3 -36 -7z"/>
<path d="M2235 1168 c-2 -7 -6 -52 -7 -101 l-3 -87 60 1 c33 1 52 3 42 6 -17
4 -19 14 -17 81 4 115 5 112 -35 112 -20 0 -38 -6 -40 -12z"/>
<path d="M2334 1165 c-18 -14 -18 -14 4 -8 22 5 32 -12 10 -19 -7 -3 -9 -12
-5 -22 11 -27 61 -18 65 12 7 46 -35 67 -74 37z"/>
<path d="M2447 1173 c-4 -3 -7 -46 -7 -94 0 -60 -4 -89 -12 -92 -7 -3 16 -5
52 -5 36 0 59 2 53 5 -9 3 -13 33 -13 99 l0 94 -33 0 c-19 0 -37 -3 -40 -7z"/>
<path d="M2597 1169 c-26 -15 -38 -54 -27 -83 6 -17 24 -29 59 -41 59 -19 71
-33 46 -52 -16 -11 -16 -13 -3 -13 27 0 48 29 48 66 0 28 -6 38 -32 54 -18 11
-40 20 -49 20 -27 0 -44 27 -29 45 15 18 12 18 -13 4z"/>
<path d="M2688 1172 c-15 -6 -15 -9 3 -31 l19 -23 0 31 c0 17 -1 31 -2 30 -2
0 -11 -3 -20 -7z"/>
<path d="M220 1028 l0 -43 53 -2 c37 -2 46 0 31 6 -11 5 -34 25 -52 45 l-32
37 0 -43z"/>
<path d="M476 1057 c-26 -19 -17 -59 16 -75 38 -18 53 -5 53 46 0 38 -2 42
-26 42 -14 0 -33 -6 -43 -13z"/>
<path d="M916 1057 c-26 -19 -17 -59 16 -75 38 -18 53 -5 53 46 0 38 -2 42
-26 42 -14 0 -33 -6 -43 -13z"/>
<path d="M2560 1014 c0 -28 3 -30 38 -31 20 0 30 2 22 4 -8 3 -25 17 -37 31
l-23 27 0 -31z"/>
<path d="M329 703 c-4 -43 -3 -65 3 -69 4 -3 8 2 8 10 0 9 7 16 15 16 8 0 15
5 15 10 0 6 -7 10 -15 10 -21 0 -19 18 3 23 13 4 11 5 -5 6 -13 0 -23 -2 -24
-6z"/>
<path d="M440 670 c0 -22 5 -40 11 -40 5 0 8 4 4 9 -3 5 -1 12 4 15 5 3 11 -1
15 -9 3 -8 10 -15 16 -15 6 0 8 5 4 12 -5 7 -7 25 -6 40 2 24 -1 28 -23 28
-23 0 -25 -4 -25 -40z m35 20 c3 -5 1 -10 -4 -10 -6 0 -11 5 -11 10 0 6 2 10
4 10 3 0 8 -4 11 -10z"/>
<path d="M560 670 c0 -37 2 -40 28 -39 16 1 20 3 10 6 -10 2 -18 8 -18 13 0 5
8 14 18 19 16 10 16 10 0 11 -10 0 -18 4 -18 9 0 5 8 12 18 14 10 3 6 5 -10 6
-26 1 -28 -2 -28 -39z"/>
<path d="M677 703 c-4 -3 -7 -21 -7 -40 0 -29 3 -33 27 -33 25 0 26 1 8 14
-18 13 -18 13 1 24 17 10 17 11 2 12 -10 0 -18 4 -18 9 0 5 8 12 18 14 14 4
13 5 -4 6 -11 0 -24 -2 -27 -6z"/>
<path d="M790 670 c0 -37 2 -40 28 -39 16 1 20 3 10 6 -13 3 -18 15 -18 39 0
19 -4 34 -10 34 -5 0 -10 -18 -10 -40z"/>
<path d="M910 674 c-7 -19 -9 -38 -5 -42 4 -4 10 -1 12 6 3 6 11 12 18 12 7 0
15 -6 18 -12 11 -31 15 2 5 35 -14 47 -33 47 -48 1z m27 -6 c-3 -8 -6 -5 -6 6
-1 11 2 17 5 13 3 -3 4 -12 1 -19z"/>
<path d="M1030 670 c0 -22 5 -40 10 -40 6 0 10 12 10 28 l1 27 15 -28 c13 -25
37 -34 35 -14 -1 4 -2 22 -2 40 l-1 32 -7 -30 -8 -30 -13 28 c-20 41 -40 35
-40 -13z"/>
<path d="M1175 690 c-11 -34 3 -60 33 -59 26 0 26 1 5 9 -14 6 -23 18 -23 30
0 12 9 24 23 30 21 8 21 9 -5 9 -18 1 -29 -5 -33 -19z"/>
<path d="M1300 670 c0 -34 3 -40 22 -40 21 0 21 1 3 14 -18 13 -18 13 1 24 19
11 19 11 -1 12 -20 1 -20 1 -1 15 19 15 19 15 -2 15 -19 0 -22 -6 -22 -40z"/>
<path d="M1489 703 c-1 -5 0 -21 1 -36 1 -15 -4 -35 -10 -43 -10 -11 -9 -14 4
-14 13 0 16 11 16 50 0 28 -2 50 -5 50 -3 0 -5 -3 -6 -7z"/>
<path d="M1574 696 c-15 -40 21 -80 54 -60 37 24 21 74 -25 74 -13 0 -26 -6
-29 -14z m54 -23 c4 -24 -26 -40 -34 -18 -8 21 3 47 19 43 6 -3 13 -14 15 -25z"/>
<path d="M1712 673 c3 -35 6 -38 33 -38 27 0 30 3 33 38 2 20 -1 37 -7 37 -5
0 -11 -15 -13 -32 -2 -18 -7 -33 -13 -33 -5 0 -11 15 -13 33 -2 17 -8 32 -13
32 -6 0 -9 -17 -7 -37z"/>
<path d="M1850 668 c0 -37 1 -40 13 -24 12 17 14 17 20 2 4 -9 11 -16 17 -16
6 0 8 5 4 12 -5 7 -7 25 -6 40 2 24 -1 28 -23 28 -23 0 -25 -4 -25 -42z m35
22 c3 -5 -1 -10 -10 -10 -9 0 -13 5 -10 10 3 6 8 10 10 10 2 0 7 -4 10 -10z"/>
<path d="M1970 670 c0 -41 20 -58 21 -17 l0 22 16 -22 c25 -36 43 -29 43 17 0
22 -4 40 -10 40 -5 0 -10 -12 -10 -27 l-1 -28 -17 28 c-25 40 -42 35 -42 -13z"/>
<path d="M2117 670 c-17 -44 -16 -46 13 -27 17 10 22 9 30 -3 15 -25 20 -6 8
33 -15 48 -31 47 -51 -3z m30 -2 c-3 -8 -6 -5 -6 6 -1 11 2 17 5 13 3 -3 4
-12 1 -19z"/>
<path d="M2240 670 c0 -39 1 -40 33 -39 29 0 30 1 10 9 -17 7 -23 18 -23 40 0
16 -4 30 -10 30 -5 0 -10 -18 -10 -40z"/>
<path d="M2360 670 c0 -22 5 -40 10 -40 6 0 10 18 10 40 0 22 -4 40 -10 40 -5
0 -10 -18 -10 -40z"/>
<path d="M2445 699 c-4 -5 0 -18 9 -28 20 -22 21 -35 1 -27 -8 3 -15 1 -15 -4
0 -6 9 -10 20 -10 27 0 38 29 17 45 -22 16 -21 22 1 28 13 4 12 5 -5 6 -12 0
-25 -4 -28 -10z"/>
<path d="M2558 703 c6 -2 12 -20 12 -39 0 -19 5 -34 10 -34 6 0 10 15 10 34 0
19 6 37 13 39 6 3 -4 5 -23 5 -19 0 -29 -2 -22 -5z"/>
</g>
</svg>
