<?xml version="1.0" standalone="no"?>
<!DOCTYPE svg PUBLIC "-//W3C//DTD SVG 20010904//EN"
 "http://www.w3.org/TR/2001/REC-SVG-20010904/DTD/svg10.dtd">
<svg version="1.0" xmlns="http://www.w3.org/2000/svg"
 width="200.000000pt" height="200.000000pt" viewBox="0 0 200.000000 200.000000"
 preserveAspectRatio="xMidYMid meet">
<metadata>
Created by potrace 1.15, written by Peter Selinger 2001-2017
</metadata>
<g transform="translate(0.000000,200.000000) scale(0.100000,-0.100000)"
fill="#000000" stroke="none">
<path d="M1658 1024 c-45 -125 -57 -148 -80 -158 -23 -10 -19 -11 35 -12 34 0
53 1 42 4 -34 7 -36 16 -17 73 l19 54 50 3 51 3 20 -61 c15 -45 18 -62 9 -65
-7 -2 -19 -6 -27 -8 -8 -3 14 -6 50 -6 58 -1 63 0 44 13 -13 9 -40 69 -73 160
-30 80 -57 146 -61 146 -5 0 -32 -66 -62 -146z m77 31 c9 -26 15 -48 12 -51
-3 -3 -23 -4 -45 -2 l-40 3 20 53 c11 29 23 50 27 47 5 -2 16 -25 26 -50z"/>
<path d="M1382 1144 c-58 -40 -45 -102 30 -143 86 -48 109 -89 70 -124 -40
-36 -95 -15 -130 48 -10 17 -11 14 -12 -21 0 -49 8 -54 86 -54 69 0 104 29
104 85 0 42 -20 65 -88 99 -59 30 -76 49 -67 76 6 19 41 40 67 40 5 0 23 -14
39 -31 l29 -31 0 26 c0 15 -8 30 -19 36 -29 15 -83 12 -109 -6z"/>
<path d="M154 1141 l29 -6 -3 -90 c-4 -145 -11 -178 -40 -186 -15 -4 2 -7 45
-7 45 0 59 3 40 7 l-30 6 -3 123 c-1 69 1 121 6 118 5 -3 28 -49 51 -103 23
-54 47 -111 54 -126 12 -28 14 -26 62 93 27 67 53 123 56 126 4 2 6 -24 5 -58
-2 -35 -4 -86 -4 -114 -2 -42 -6 -53 -24 -62 -19 -9 -9 -11 52 -11 74 1 74 1
42 15 l-33 14 3 128 3 127 30 6 c24 5 19 7 -22 8 -29 0 -53 -3 -53 -8 0 -16
-85 -211 -91 -211 -4 0 -29 50 -55 110 l-49 110 -50 -1 c-39 -1 -44 -3 -21 -8z"/>
<path d="M558 1143 c22 -4 22 -7 22 -143 l0 -139 -27 -4 c-16 -2 37 -4 117 -3
l145 1 6 38 c6 39 -5 51 -16 17 -12 -37 -48 -51 -117 -48 l-63 3 -3 68 -3 67
61 0 c55 0 61 -2 70 -25 5 -14 11 -25 12 -25 2 0 3 25 3 55 0 30 -1 55 -3 55
-1 0 -7 -11 -12 -25 -9 -23 -15 -25 -70 -25 l-60 0 0 65 0 66 73 -3 c64 -3 73
-6 82 -25 13 -31 20 -29 20 7 l0 30 -130 -1 c-71 -1 -120 -4 -107 -6z"/>
<path d="M859 1134 c-9 -12 -7 -19 10 -38 11 -12 20 -24 19 -27 -2 -2 3 2 10
10 10 13 7 17 -15 27 -24 10 -25 13 -10 19 23 10 64 -2 100 -27 23 -17 32 -18
50 -9 21 11 21 11 -4 6 -16 -3 -33 2 -45 13 -29 28 -100 43 -115 26z"/>
<path d="M1107 1093 c-3 -5 10 -9 29 -9 39 -2 39 5 1 12 -14 2 -28 1 -30 -3z"/>
<path d="M1060 1076 c7 -7 13 -7 20 0 6 6 3 10 -10 10 -13 0 -16 -4 -10 -10z"/>
<path d="M1181 1069 c-1 -22 5 -28 38 -39 22 -7 47 -10 55 -7 10 4 16 1 16 -8
0 -8 -4 -15 -9 -15 -19 0 -81 -75 -81 -97 0 -28 -8 -29 -27 -5 -12 15 -12 13
-2 -11 7 -15 14 -25 17 -22 3 3 11 0 18 -6 8 -6 14 -6 18 0 4 5 2 12 -4 16 -5
3 -10 13 -10 21 0 21 49 84 65 84 16 0 38 57 25 65 -5 3 -11 1 -15 -5 -16 -25
-92 1 -98 34 -4 17 -5 17 -6 -5z"/>
<path d="M870 1049 c-1 -20 51 -144 62 -147 8 -2 9 0 3 5 -6 4 -19 33 -29 63
-18 54 -35 91 -36 79z"/>
<path d="M966 1018 c8 -27 24 -40 41 -33 6 2 16 -2 22 -9 13 -16 1 -28 -50
-50 -19 -9 -27 -15 -18 -16 25 0 84 45 83 63 -2 23 43 23 68 0 10 -9 18 -11
18 -5 0 16 -28 28 -78 35 -24 3 -51 12 -61 21 -25 22 -34 20 -25 -6z m29 -8
c10 -11 14 -20 9 -20 -5 0 -15 9 -22 20 -7 11 -11 20 -9 20 2 0 12 -9 22 -20z"/>
</g>
</svg>
