<?xml version="1.0" standalone="no"?>
<!DOCTYPE svg PUBLIC "-//W3C//DTD SVG 20010904//EN"
 "http://www.w3.org/TR/2001/REC-SVG-20010904/DTD/svg10.dtd">
<svg version="1.0" xmlns="http://www.w3.org/2000/svg"
 width="866.000000pt" height="650.000000pt" viewBox="0 0 866.000000 650.000000"
 preserveAspectRatio="xMidYMid meet">
<metadata>
Created by potrace 1.15, written by Peter Selinger 2001-2017
</metadata>
<g transform="translate(0.000000,650.000000) scale(0.100000,-0.100000)"
fill="#000000" stroke="none">
<path d="M6973 4130 c-449 -48 -803 -476 -769 -932 44 -593 620 -977 1161
-773 197 73 377 238 472 430 170 341 104 751 -162 1021 -185 189 -442 281
-702 254z m260 -488 c88 -41 163 -116 208 -207 32 -67 34 -75 34 -180 0 -106
-1 -113 -36 -185 -101 -213 -340 -305 -544 -209 -72 34 -159 120 -196 194
-119 243 -1 527 256 612 24 8 73 12 125 10 71 -2 97 -8 153 -35z"/>
<path d="M970 4088 c0 -2 -54 -379 -120 -838 -66 -459 -120 -836 -120 -837 0
-2 101 -3 224 -3 l224 0 5 33 c4 17 24 163 47 322 22 160 43 301 46 314 4 21
13 10 50 -70 161 -339 288 -599 293 -599 3 0 80 156 171 346 90 190 166 340
169 333 2 -7 25 -161 50 -343 l47 -331 225 -3 225 -2 -77 562 c-43 310 -94
688 -115 841 l-38 277 -177 0 -176 0 -149 -320 c-82 -175 -152 -319 -155 -320
-3 0 -70 144 -150 320 l-144 319 -177 1 c-98 0 -178 -1 -178 -2z"/>
<path d="M2656 4082 c-3 -5 -4 -382 -3 -838 l2 -829 457 -3 c428 -2 457 -1
462 15 16 54 106 412 106 421 0 9 -77 12 -290 12 l-290 0 0 85 0 85 170 0 170
0 0 220 0 220 -170 0 -170 0 0 90 0 90 260 0 c250 0 260 1 260 19 0 11 -13
106 -30 211 -16 105 -30 196 -30 201 0 11 -897 12 -904 1z"/>
<path d="M3735 4078 c-2 -7 -11 -92 -20 -188 -8 -96 -18 -185 -20 -197 l-5
-23 172 -2 173 -3 3 -627 2 -628 220 0 220 0 0 630 0 630 171 0 171 0 -5 33
c-3 17 -14 112 -23 210 l-18 177 -518 0 c-406 0 -519 -3 -523 -12z"/>
<path d="M4943 3253 l2 -838 220 0 220 0 0 338 c0 185 2 337 5 337 3 0 71
-153 150 -340 l145 -340 247 0 c231 0 247 1 241 18 -4 9 -75 172 -159 362
l-153 345 69 63 c125 114 175 258 153 439 -20 157 -77 264 -183 344 -131 98
-189 109 -617 109 l-342 0 2 -837z m550 452 c32 -8 69 -22 82 -31 82 -54 99
-222 29 -297 -34 -37 -70 -53 -143 -67 -72 -13 -81 -8 -75 44 1 17 3 106 3
199 l1 167 23 0 c12 0 49 -7 80 -15z"/>
</g>
</svg>
