<?xml version="1.0" standalone="no"?>
<!DOCTYPE svg PUBLIC "-//W3C//DTD SVG 20010904//EN"
 "http://www.w3.org/TR/2001/REC-SVG-20010904/DTD/svg10.dtd">
<svg version="1.0" xmlns="http://www.w3.org/2000/svg"
 width="314.000000pt" height="58.000000pt" viewBox="0 0 314.000000 58.000000"
 preserveAspectRatio="xMidYMid meet">
<metadata>
Created by potrace 1.15, written by Peter Selinger 2001-2017
</metadata>
<g transform="translate(0.000000,58.000000) scale(0.100000,-0.100000)"
fill="#000000" stroke="none">
<path d="M0 290 l0 -290 1570 0 1570 0 0 290 0 290 -1570 0 -1570 0 0 -290z
m1260 235 c0 -44 1 -45 33 -45 20 0 42 -8 55 -20 19 -18 22 -31 22 -100 0 -72
-2 -80 -19 -80 -16 0 -19 9 -23 71 -4 71 -15 92 -48 86 -12 -2 -16 -20 -18
-80 -3 -74 -4 -77 -27 -77 l-25 0 0 139 c0 102 3 141 13 144 31 13 37 6 37
-38z m790 0 c0 -44 1 -45 31 -45 65 0 89 -38 89 -141 0 -56 -1 -59 -25 -59
-23 0 -24 3 -27 71 -3 75 -17 99 -52 86 -13 -5 -16 -21 -16 -82 0 -73 -1 -76
-22 -73 -22 3 -23 6 -24 133 -1 106 2 132 14 143 26 20 32 14 32 -33z m-1245
5 c0 -29 -32 -41 -41 -16 -9 24 4 48 23 44 12 -2 18 -12 18 -28z m1430 0 c0
-29 -32 -41 -41 -16 -9 24 4 48 23 44 12 -2 18 -12 18 -28z m531 9 c10 -17
-13 -36 -27 -22 -12 12 -4 33 11 33 5 0 12 -5 16 -11z m-2596 -80 l60 -81 0
81 c0 80 0 81 25 81 l25 0 0 -130 c0 -128 0 -130 -22 -130 -18 1 -36 22 -78
88 l-55 87 -3 -88 c-3 -85 -3 -87 -27 -87 l-25 0 0 130 c0 123 1 130 20 130
14 0 40 -27 80 -81z m2430 -39 l0 -120 60 0 c33 0 60 -4 60 -10 0 -6 -30 -10
-70 -10 l-70 0 0 130 c0 80 4 130 10 130 6 0 10 -47 10 -120z m-2048 83 c2
-24 8 -29 36 -31 45 -5 41 -36 -6 -40 -31 -3 -32 -4 -32 -51 0 -53 17 -77 48
-67 14 5 21 1 25 -13 9 -35 -55 -43 -93 -13 -20 16 -23 29 -26 113 -3 109 1
129 26 129 13 0 20 -8 22 -27z m128 3 c0 -24 16 -36 52 -36 35 0 17 -35 -20
-38 -32 -3 -32 -4 -32 -57 0 -45 3 -55 20 -60 11 -3 24 -3 30 0 6 3 13 -1 17
-10 13 -37 -64 -48 -97 -15 -18 18 -20 33 -20 130 l0 110 25 0 c20 0 25 -5 25
-24z m-225 -50 c55 -55 36 -160 -33 -180 -78 -22 -140 54 -112 138 21 64 100
87 145 42z m520 -1 c22 -21 25 -33 25 -100 0 -73 -1 -75 -25 -75 -23 0 -24 3
-27 71 -3 75 -17 99 -52 86 -13 -5 -16 -21 -16 -82 0 -68 -2 -75 -20 -75 -19
0 -20 7 -20 94 0 105 -1 103 73 105 28 1 44 -5 62 -24z m189 19 c13 -5 16 -25
16 -111 0 -57 -4 -113 -10 -123 -5 -10 -25 -23 -42 -29 -33 -10 -99 -3 -98 12
0 4 0 13 0 20 0 9 12 11 40 9 38 -4 70 9 70 29 0 5 -16 9 -36 9 -49 0 -70 14
-84 55 -15 46 2 100 38 120 28 15 79 19 106 9z m356 -14 c17 -17 20 -33 20
-99 l0 -79 -31 -7 c-39 -9 -93 1 -109 20 -17 21 -16 64 2 82 9 8 34 17 56 20
37 5 40 7 31 25 -8 15 -19 19 -45 16 -26 -3 -34 0 -34 12 0 25 9 30 52 30 25
0 45 -7 58 -20z m167 9 c8 -8 17 -8 31 0 32 17 70 13 92 -9 17 -17 20 -33 20
-100 0 -73 -2 -80 -20 -80 -18 0 -20 7 -20 63 0 72 -16 103 -47 93 -18 -6 -20
-13 -15 -81 l5 -75 -27 0 c-25 0 -26 2 -26 61 0 69 -12 99 -40 99 -18 0 -20
-7 -20 -80 0 -79 0 -80 -25 -80 -25 0 -25 0 -25 94 0 104 -1 102 71 105 19 0
40 -4 46 -10z m282 2 c23 -15 6 -35 -30 -35 -46 -1 -44 -21 6 -49 75 -42 52
-117 -35 -117 -42 0 -64 12 -58 31 3 9 20 14 43 14 52 0 55 20 7 44 -56 29
-68 65 -32 101 21 21 74 27 99 11z m255 3 c13 -5 16 -24 16 -100 0 -94 0 -94
-25 -94 -25 0 -25 0 -25 93 0 105 3 113 34 101z m154 -21 c3 -18 -1 -21 -30
-20 l-33 2 -3 -77 c-3 -70 -5 -78 -22 -78 -18 0 -20 7 -20 94 0 105 1 106 70
103 28 -2 36 -7 38 -24z m147 2 c17 -16 25 -35 25 -60 l0 -35 -60 0 c-46 0
-60 -3 -60 -15 0 -21 38 -38 72 -31 21 4 30 1 35 -10 8 -21 -14 -34 -60 -34
-57 0 -97 43 -97 105 0 89 88 138 145 80z m539 3 c15 -13 29 -38 32 -55 l7
-33 -66 0 c-36 0 -68 -4 -71 -8 -3 -4 1 -19 7 -33 10 -19 21 -25 60 -27 47 -3
61 -15 31 -26 -48 -19 -109 10 -122 57 -14 50 -3 94 30 122 37 31 59 32 92 3z
m-2254 -83 c0 -95 0 -95 -25 -95 -25 0 -25 0 -25 95 0 95 0 95 25 95 25 0 25
0 25 -95z m1950 0 c0 -57 -4 -95 -10 -95 -6 0 -10 38 -10 95 0 57 4 95 10 95
6 0 10 -38 10 -95z m67 12 c14 -42 29 -75 32 -72 4 2 18 38 31 79 13 42 29 76
36 76 15 0 -3 -71 -36 -147 -31 -70 -48 -57 -91 66 -22 61 -24 84 -8 79 6 -2
22 -38 36 -81z"/>
<path d="M366 418 c-9 -12 -16 -32 -16 -43 0 -26 27 -65 44 -65 41 0 61 83 28
113 -25 23 -38 21 -56 -5z"/>
<path d="M1074 414 c-26 -38 -9 -78 34 -82 l32 -3 0 55 c0 53 -1 56 -25 56
-15 0 -31 -10 -41 -26z"/>
<path d="M1435 350 c-10 -17 16 -41 39 -38 13 2 22 12 24 26 3 19 -1 22 -27
22 -16 0 -33 -5 -36 -10z"/>
<path d="M2442 428 c-22 -22 -13 -38 22 -38 41 0 52 12 30 34 -18 19 -36 20
-52 4z"/>
<path d="M2982 438 c-7 -7 -12 -20 -12 -30 0 -15 9 -18 50 -18 37 0 50 4 50
14 0 37 -61 61 -88 34z"/>
</g>
</svg>
