<?xml version="1.0" standalone="no"?>
<!DOCTYPE svg PUBLIC "-//W3C//DTD SVG 20010904//EN"
 "http://www.w3.org/TR/2001/REC-SVG-20010904/DTD/svg10.dtd">
<svg version="1.0" xmlns="http://www.w3.org/2000/svg"
 width="360.000000pt" height="216.000000pt" viewBox="0 0 360.000000 216.000000"
 preserveAspectRatio="xMidYMid meet">
<metadata>
Created by potrace 1.15, written by Peter Selinger 2001-2017
</metadata>
<g transform="translate(0.000000,216.000000) scale(0.100000,-0.100000)"
fill="#000000" stroke="none">
<path d="M393 1359 c-64 -25 -131 -88 -163 -154 -21 -41 -25 -65 -25 -135 0
-73 4 -92 27 -135 32 -60 87 -114 148 -146 37 -20 60 -24 130 -24 73 0 92 4
136 27 156 82 217 265 140 423 -68 137 -243 202 -393 144z m251 -48 c198 -111
185 -392 -23 -492 -57 -28 -157 -30 -214 -5 -45 20 -109 76 -137 120 -75 122
-29 297 99 373 62 37 86 43 165 37 41 -3 75 -13 110 -33z"/>
<path d="M360 1240 c0 -18 7 -20 73 -20 82 0 112 -14 122 -58 9 -42 -10 -81
-47 -97 -18 -7 -34 -12 -36 -10 -2 2 4 18 13 35 43 83 -70 141 -122 63 -14
-20 -14 -23 1 -29 10 -4 23 3 35 17 16 20 23 22 38 13 25 -16 26 -34 3 -71
-15 -26 -27 -33 -50 -33 -20 0 -30 -5 -30 -15 0 -8 7 -15 15 -15 22 0 19 -11
-16 -58 l-31 -42 81 0 c65 0 81 3 81 15 0 11 -12 15 -45 15 -25 0 -45 3 -45 6
0 16 44 64 58 64 10 0 43 -33 75 -75 37 -48 65 -75 78 -75 23 0 24 8 5 29 -13
14 -9 25 39 94 63 92 71 117 50 157 -16 31 -49 45 -90 38 -18 -4 -29 1 -41 19
-22 35 -73 53 -149 53 -58 0 -65 -2 -65 -20z m302 -97 c21 -19 23 -44 6 -61
-39 -39 -100 17 -63 58 22 24 33 25 57 3z m-64 -100 c15 -9 28 -18 30 -19 5
-3 -42 -74 -49 -74 -3 0 -17 16 -32 36 l-26 37 22 18 c27 22 22 22 55 2z"/>
<path d="M3018 1204 c-27 -14 -48 -42 -48 -63 0 -19 49 -12 60 9 19 36 70 19
70 -25 0 -11 -32 -60 -70 -108 l-71 -87 101 0 c99 0 100 0 100 24 0 22 -5 25
-47 28 l-47 3 31 35 c39 45 53 73 53 105 0 37 -16 62 -50 80 -36 18 -47 18
-82 -1z"/>
<path d="M3263 1206 c-40 -18 -67 -67 -58 -106 7 -31 57 -80 81 -80 19 0 18
-4 -11 -50 l-25 -40 29 0 c25 0 34 9 71 71 56 95 62 136 24 177 -35 38 -69 46
-111 28z m71 -49 c22 -16 18 -65 -5 -80 -47 -29 -101 32 -64 73 21 23 44 25
69 7z"/>
<path d="M1040 1071 l0 -141 25 0 c24 0 25 3 25 60 0 42 4 60 13 60 6 -1 32
-27 57 -60 39 -52 49 -59 79 -60 31 0 33 1 19 18 -8 9 -31 37 -51 61 l-37 44
25 23 c30 28 33 72 7 104 -15 18 -31 23 -90 28 l-72 5 0 -142z m125 59 c0 -22
-5 -25 -37 -28 -36 -3 -38 -2 -38 28 0 30 2 31 38 28 32 -3 37 -6 37 -28z"/>
<path d="M1310 1070 l0 -140 85 0 c84 0 85 0 85 25 0 24 -3 25 -61 25 l-60 0
3 38 c3 36 4 37 46 40 34 3 42 7 42 23 0 16 -7 19 -45 19 -43 0 -45 1 -45 30
0 28 1 29 58 32 49 3 57 6 57 23 0 18 -8 20 -82 23 l-83 3 0 -141z"/>
<path d="M1550 1070 l0 -140 25 0 c23 0 24 4 27 63 l3 62 40 1 c33 0 41 4 43
22 3 20 -1 22 -42 22 -44 0 -46 1 -46 30 0 30 1 30 55 30 52 0 55 1 55 25 0
25 -1 25 -80 25 l-80 0 0 -140z"/>
<path d="M1777 1203 c-4 -3 -7 -66 -7 -140 l0 -133 25 0 25 0 0 140 c0 129 -1
140 -18 140 -10 0 -22 -3 -25 -7z"/>
<path d="M1907 1203 c-4 -3 -7 -66 -7 -140 l0 -133 25 0 c25 0 25 1 25 85 0
47 4 85 8 85 5 0 41 -38 81 -85 45 -53 80 -85 92 -85 19 0 19 6 17 138 l-3
137 -24 0 c-24 0 -24 -1 -22 -87 1 -49 -1 -88 -6 -87 -4 0 -41 40 -82 90 -70
84 -88 98 -104 82z"/>
<path d="M2230 1070 l0 -140 85 0 c84 0 85 0 85 25 0 24 -3 25 -61 25 l-60 0
3 38 c3 36 4 37 46 40 34 3 42 7 42 23 0 16 -7 19 -45 19 -43 0 -45 1 -45 30
0 30 1 30 55 30 52 0 55 1 55 25 0 25 -1 25 -80 25 l-80 0 0 -140z"/>
<path d="M2470 1071 l0 -141 25 0 c24 0 25 3 25 60 0 41 4 60 13 60 6 0 34
-27 60 -60 40 -49 54 -60 79 -60 34 0 36 -5 -33 80 l-37 45 24 18 c18 13 24
28 24 56 0 56 -26 75 -111 79 l-69 4 0 -141z m125 59 c0 -22 -5 -25 -37 -28
-36 -3 -38 -2 -38 28 0 30 2 31 38 28 32 -3 37 -6 37 -28z"/>
<path d="M2700 1206 c0 -3 20 -37 45 -76 41 -65 45 -75 45 -135 0 -63 1 -65
25 -65 24 0 25 3 25 61 0 55 4 68 45 133 25 40 45 76 45 79 0 4 -11 7 -25 7
-19 0 -32 -12 -56 -51 l-31 -50 -32 48 c-23 35 -39 49 -59 51 -15 2 -27 1 -27
-2z"/>
</g>
</svg>
