<?xml version="1.0" standalone="no"?>
<!DOCTYPE svg PUBLIC "-//W3C//DTD SVG 20010904//EN"
 "http://www.w3.org/TR/2001/REC-SVG-20010904/DTD/svg10.dtd">
<svg version="1.0" xmlns="http://www.w3.org/2000/svg"
 width="500.000000pt" height="500.000000pt" viewBox="0 0 500.000000 500.000000"
 preserveAspectRatio="xMidYMid meet">
<metadata>
Created by potrace 1.15, written by Peter Selinger 2001-2017
</metadata>
<g transform="translate(0.000000,500.000000) scale(0.100000,-0.100000)"
fill="#000000" stroke="none">
<path d="M1233 4570 c-13 -5 -23 -18 -23 -28 0 -11 -7 -25 -16 -33 -12 -10
-14 -23 -9 -58 4 -31 1 -61 -9 -90 -23 -64 -19 -161 5 -145 12 7 11 41 -2 62
-8 13 -3 43 19 127 17 61 31 101 31 90 0 -11 -11 -58 -24 -104 -29 -100 -32
-140 -5 -61 l20 55 -7 -55 c-15 -122 -8 -319 12 -338 10 -10 125 -18 128 -9 1
4 15 3 30 -2 42 -16 332 -14 345 2 29 34 44 382 20 430 -8 15 -5 20 11 24 17
4 21 13 20 42 l-2 36 -7 -35 c-7 -33 -7 -32 -9 16 -2 85 0 84 -272 83 -129 0
-244 -4 -256 -9z m504 -27 c5 -16 8 -34 7 -40 -1 -7 -3 -25 -4 -40 -2 -16 -6
-1 -9 32 l-6 60 -237 3 c-218 2 -238 1 -238 -14 0 -10 -3 -15 -6 -11 -4 3 -4
13 -1 22 6 13 39 15 246 15 l239 0 9 -27z m-144 0 c-57 -2 -149 -2 -205 0 -57
1 -11 3 102 3 113 0 159 -2 103 -3z m110 -27 c9 -23 -2 -26 -95 -26 -70 0 -90
3 -94 15 -4 8 -14 15 -23 15 -13 0 -13 -2 -2 -9 23 -15 -16 -21 -121 -18 -91
2 -113 9 -91 30 3 4 100 7 214 7 168 0 208 -3 212 -14z m-443 -6 c0 -5 -5 -10
-11 -10 -5 0 -7 5 -4 10 3 6 8 10 11 10 2 0 4 -4 4 -10z m-50 -17 c0 -5 -5
-15 -10 -23 -8 -12 -10 -11 -10 8 0 12 5 22 10 22 6 0 10 -3 10 -7z m70 -17
c0 -3 -4 -8 -10 -11 -5 -3 -10 -1 -10 4 0 6 5 11 10 11 6 0 10 -2 10 -4z m420
-6 c0 -9 -101 -16 -158 -11 -15 1 -21 -2 -17 -8 3 -6 1 -11 -5 -11 -6 0 -13 6
-16 13 -5 14 -31 16 -52 3 -6 -4 -16 -4 -22 -1 -5 3 -10 1 -10 -4 0 -6 -5 -11
-11 -11 -5 0 -8 3 -6 8 3 4 -21 5 -54 4 -49 -3 -59 -1 -59 12 0 14 24 16 205
16 130 0 205 -4 205 -10z m-450 -20 c0 -5 -4 -10 -10 -10 -5 0 -10 5 -10 10 0
6 5 10 10 10 6 0 10 -4 10 -10z m458 -12 c-3 -7 5 -18 16 -23 14 -7 20 -20 19
-36 -1 -13 -2 -63 -3 -111 -1 -53 -6 -86 -12 -82 -5 3 -7 11 -5 17 11 34 -20
38 -246 37 -183 0 -226 2 -236 14 -8 9 -11 42 -9 93 l3 78 84 3 84 3 -6 -35
c-3 -22 -1 -37 6 -40 7 -3 2 -3 -9 -1 -28 7 -77 -12 -69 -26 11 -17 54 -29
124 -35 68 -5 172 13 178 31 1 6 -13 20 -32 33 -39 24 -44 47 -17 69 16 14 16
14 -1 9 -11 -3 -16 -2 -12 4 10 15 148 13 143 -2z m-208 -38 c13 -7 21 -7 25
0 3 5 11 10 17 10 6 0 6 -6 -2 -15 -8 -10 -21 -13 -33 -9 -11 3 -17 2 -14 -3
3 -5 -4 -10 -16 -10 -18 -2 -19 0 -7 8 12 9 10 10 -7 6 -27 -6 -31 9 -5 16 9
3 18 5 20 6 2 0 12 -4 22 -9z m-103 -82 c-3 -8 -6 -5 -6 6 -1 11 2 17 5 13 3
-3 4 -12 1 -19z m-220 -80 c-3 -8 -6 -5 -6 6 -1 11 2 17 5 13 3 -3 4 -12 1
-19z m68 -8 c3 -5 1 -10 -4 -10 -6 0 -11 5 -11 10 0 6 2 10 4 10 3 0 8 -4 11
-10z m-28 -32 c-3 -7 -5 -2 -5 12 0 14 2 19 5 13 2 -7 2 -19 0 -25z m483 22
c0 -6 -80 -10 -220 -10 -140 0 -220 4 -220 10 0 6 80 10 220 10 140 0 220 -4
220 -10z m-451 -36 c1 20 1 20 17 0 8 -10 13 -13 9 -6 -4 7 0 12 10 12 9 0 13
-4 10 -10 -3 -5 -2 -10 4 -10 5 0 12 6 15 13 5 10 7 10 12 0 6 -15 25 -18 22
-4 -2 5 2 9 7 9 6 0 9 -4 8 -9 -4 -14 15 -11 21 4 5 10 7 10 12 0 6 -15 25
-18 22 -4 -2 5 2 9 7 9 6 0 9 -4 8 -9 -4 -14 15 -11 21 4 5 10 7 10 12 0 6
-15 25 -18 22 -4 -2 5 2 9 7 9 6 0 9 -4 8 -9 -4 -14 15 -11 21 4 5 10 7 10 12
0 6 -14 26 -18 22 -5 -2 4 2 7 7 7 6 0 9 -3 8 -7 -5 -14 10 -8 23 10 13 16 13
16 14 0 0 -10 5 -18 11 -18 5 0 7 5 4 10 -3 6 1 10 10 10 9 0 13 -4 10 -10 -3
-5 -2 -10 4 -10 5 0 12 6 14 13 4 9 8 8 16 -3 9 -13 11 -13 11 3 0 21 16 22
24 1 10 -26 -1 -32 -44 -24 -22 4 -40 7 -41 6 -8 -13 -4 -36 7 -36 9 0 12 5 9
10 -3 6 -2 10 4 10 5 0 12 -6 15 -12 5 -10 7 -10 12 0 3 6 10 12 15 12 6 0 7
-4 4 -10 -3 -6 1 -7 9 -4 12 4 16 0 16 -16 0 -11 5 -18 10 -15 6 3 10 1 10 -4
0 -15 -15 -14 -28 2 -8 10 -64 13 -233 12 -189 0 -223 -2 -226 -15 -4 -13 -3
-13 6 0 5 8 13 11 18 7 4 -5 1 -12 -6 -16 -9 -6 -10 -11 -2 -15 6 -4 11 -3 11
2 0 6 9 8 20 5 11 -3 20 -14 20 -24 0 -16 -4 -17 -25 -9 -14 5 -25 6 -25 2 0
-28 -28 55 -33 99 -3 33 -2 46 3 34 8 -19 9 -19 9 -1z m81 -85 c0 16 17 14 23
-3 4 -11 1 -13 -11 -9 -14 6 -15 4 -5 -9 7 -8 10 -18 6 -21 -3 -4 -1 -7 6 -7
7 0 10 -4 7 -9 -3 -5 10 -9 29 -8 19 1 35 5 35 10 0 4 5 5 12 1 7 -4 33 -6 60
-5 26 1 73 -1 103 -4 46 -6 54 -10 44 -21 -16 -20 -320 -16 -327 4 -2 6 4 12
13 12 12 0 15 6 10 23 -4 12 -13 27 -21 33 -8 6 -14 15 -14 19 0 4 7 2 15 -5
10 -9 15 -9 15 -1z m60 -1 c0 -9 4 -8 11 2 8 11 12 12 16 2 2 -7 11 -19 19
-26 18 -18 18 -32 1 -17 -10 8 -17 7 -25 -1 -9 -9 -12 -9 -12 0 0 7 5 12 10
12 6 0 10 5 10 10 0 6 -6 10 -12 9 -24 -3 -38 1 -38 11 0 6 5 10 10 10 6 0 10
-6 10 -12z m70 0 c0 -9 4 -8 11 2 8 11 12 12 16 2 2 -7 11 -19 19 -26 18 -18
18 -32 1 -17 -10 8 -17 7 -25 -1 -9 -9 -12 -8 -12 5 0 10 -7 20 -15 23 -17 7
-20 24 -5 24 6 0 10 -6 10 -12z m71 0 c0 -10 2 -10 6 0 6 16 20 15 26 -2 4
-11 1 -13 -11 -9 -14 6 -15 4 -4 -9 9 -11 10 -18 2 -23 -5 -3 -10 1 -10 10 0
8 -7 18 -15 21 -17 7 -20 24 -5 24 6 0 10 -6 11 -12z m70 0 c0 -10 2 -10 6 0
6 16 20 15 26 -1 3 -9 -2 -13 -16 -11 -12 1 -25 3 -29 3 -5 1 -8 6 -8 11 0 15
20 12 21 -2z m70 0 c0 -10 2 -10 6 0 7 17 20 15 27 -4 9 -23 -22 -54 -53 -53
-14 0 -20 3 -13 6 6 2 10 9 6 14 -3 5 0 9 5 9 6 0 11 -4 11 -10 0 -5 5 -10 10
-10 16 0 12 30 -5 36 -17 7 -20 24 -5 24 6 0 10 -6 11 -12z m-291 -38 c0 -5
-2 -10 -4 -10 -3 0 -8 5 -11 10 -3 6 -1 10 4 10 6 0 11 -4 11 -10z m210 0 c0
-5 -2 -10 -4 -10 -3 0 -8 5 -11 10 -3 6 -1 10 4 10 6 0 11 -4 11 -10z m40 6
c0 -3 -4 -8 -10 -11 -5 -3 -10 -1 -10 4 0 6 5 11 10 11 6 0 10 -2 10 -4z
m-352 -63 l37 -10 -37 -2 c-39 -1 -59 18 -57 56 0 13 3 11 10 -8 7 -18 21 -29
47 -36z m7 29 c5 0 11 -5 13 -11 2 -6 -7 -7 -24 -2 -15 4 -30 13 -32 20 -3 10
0 10 14 3 11 -6 23 -10 29 -10z m455 14 c0 -23 -17 -36 -46 -36 -41 0 -44 12
-6 27 29 12 52 16 52 9z m-15 -56 c-4 -6 -69 -9 -168 -8 l-162 2 125 6 c69 3
144 7 168 8 27 1 41 -2 37 -8z"/>
<path d="M1378 4513 c7 -3 16 -2 19 1 4 3 -2 6 -13 5 -11 0 -14 -3 -6 -6z"/>
<path d="M1604 4428 c-3 -4 15 -8 40 -8 25 0 46 2 46 4 0 8 -82 11 -86 4z"/>
<path d="M1303 4162 c-42 -2 -53 -6 -52 -20 0 -10 3 -12 6 -4 2 6 9 12 14 12
6 0 7 -4 4 -10 -3 -5 1 -10 10 -10 9 0 13 5 10 10 -3 6 -2 10 4 10 5 0 12 -6
15 -12 5 -10 7 -10 12 0 3 6 10 12 15 12 6 0 7 -4 4 -10 -4 -6 7 -10 24 -10
20 0 31 5 31 14 0 17 -28 22 -97 18z"/>
<path d="M1419 4165 c0 0 -2 -8 -4 -17 -2 -14 4 -18 26 -18 16 0 29 5 29 10 0
6 5 10 11 10 5 0 7 -4 4 -10 -3 -5 1 -10 10 -10 9 0 13 5 10 10 -3 6 -2 10 4
10 5 0 12 -6 15 -12 5 -10 7 -10 12 0 3 6 10 12 15 12 6 0 7 -4 4 -10 -3 -5 1
-10 10 -10 9 0 13 5 10 10 -3 6 -1 10 4 10 6 0 11 -4 11 -10 0 -5 5 -10 10
-10 18 0 11 30 -7 31 -13 0 -161 4 -174 4z"/>
<path d="M1475 4080 c3 -5 8 -10 11 -10 2 0 4 5 4 10 0 6 -5 10 -11 10 -5 0
-7 -4 -4 -10z"/>
<path d="M1685 4080 c3 -5 8 -10 11 -10 2 0 4 5 4 10 0 6 -5 10 -11 10 -5 0
-7 -4 -4 -10z"/>
<path d="M1138 3863 c9 -3 12 -44 12 -153 0 -109 -3 -150 -12 -153 -7 -3 16
-6 52 -6 39 0 60 3 52 8 -10 6 -13 30 -12 87 1 44 2 112 1 152 l-1 72 -52 -1
c-29 0 -47 -3 -40 -6z"/>
<path d="M2462 3848 c-30 -30 0 -75 43 -64 19 5 25 13 25 35 0 38 -41 56 -68
29z"/>
<path d="M249 3821 c-33 -34 -39 -82 -14 -118 9 -12 43 -32 76 -44 33 -12 64
-30 69 -40 13 -23 2 -49 -24 -59 -18 -8 -18 -9 -3 -9 32 -1 77 53 77 93 0 47
-32 81 -99 103 -61 20 -82 43 -65 71 25 39 84 26 119 -25 l25 -38 0 41 c0 40
-1 42 -37 48 -71 11 -93 7 -124 -23z"/>
<path d="M1478 3843 c9 -3 12 -42 12 -143 0 -101 -3 -140 -12 -143 -7 -3 19
-5 57 -5 39 0 62 2 52 5 -15 4 -17 14 -15 71 l3 67 40 0 40 0 3 -67 c2 -57 0
-67 -15 -71 -10 -3 14 -5 52 -5 39 0 64 2 58 5 -10 3 -13 43 -13 149 l0 144
-52 -1 c-29 0 -47 -3 -40 -6 8 -3 12 -27 12 -69 l0 -64 -45 0 -45 0 0 58 c0
32 5 63 12 70 9 9 -2 12 -52 11 -36 0 -59 -3 -52 -6z"/>
<path d="M560 3740 c5 -10 10 -34 10 -53 0 -33 -2 -35 -40 -40 -49 -6 -70 -22
-70 -51 0 -31 19 -46 55 -46 31 0 32 1 31 41 -1 27 4 44 13 47 10 3 12 -4 9
-31 -4 -40 14 -57 61 -57 33 0 55 21 48 47 -4 14 -5 13 -6 -4 0 -13 -5 -23
-10 -23 -5 0 -11 34 -13 75 -4 83 -14 99 -66 109 -30 5 -32 4 -22 -14z"/>
<path d="M817 3745 c-15 -7 -27 -10 -27 -4 0 5 -24 9 -52 8 -29 0 -47 -3 -40
-6 8 -3 12 -32 12 -93 0 -61 -4 -90 -12 -93 -7 -3 16 -5 52 -5 36 0 59 2 53 5
-16 6 -18 135 -3 164 11 20 40 27 40 9 0 -5 -4 -10 -10 -10 -17 0 -11 -40 6
-47 43 -16 68 47 29 73 -17 11 -25 11 -48 -1z"/>
<path d="M1007 3705 l5 -52 -41 -6 c-50 -6 -71 -22 -71 -51 0 -31 19 -46 55
-46 31 0 32 1 31 41 -1 27 4 44 13 47 10 3 12 -4 9 -31 -3 -26 1 -38 14 -46
41 -25 108 -3 95 31 -4 8 -6 7 -6 -4 -1 -10 -5 -18 -11 -18 -6 0 -10 28 -10
63 0 78 -15 109 -57 118 l-31 6 5 -52z"/>
<path d="M1275 3752 c-30 -6 -43 -22 -17 -22 21 0 22 -4 22 -84 0 -58 -4 -86
-12 -89 -7 -3 16 -5 52 -5 36 0 59 2 53 5 -9 3 -13 27 -13 71 0 97 -27 136
-85 124z"/>
<path d="M1878 3749 c6 -7 12 -32 12 -56 0 -39 -2 -43 -24 -43 -63 0 -99 -38
-76 -80 8 -15 21 -20 50 -20 21 0 42 5 45 10 5 8 11 8 20 0 18 -15 87 -9 93 8
2 7 -2 10 -12 6 -14 -5 -16 5 -16 69 0 80 -13 107 -50 107 -10 0 -27 3 -37 6
-15 6 -16 4 -5 -7z m12 -143 c0 -36 -13 -55 -25 -36 -9 14 4 70 16 70 5 0 9
-15 9 -34z"/>
<path d="M485 3734 c-23 -23 -15 -58 14 -62 32 -5 44 10 36 47 -7 34 -25 40
-50 15z"/>
<path d="M925 3734 c-23 -23 -15 -58 14 -62 32 -5 44 10 36 47 -7 34 -25 40
-50 15z"/>
<path d="M1806 3728 c-19 -27 -4 -61 26 -56 29 4 48 36 29 47 -7 5 -10 14 -7
20 13 21 -33 11 -48 -11z"/>
<path d="M2025 3738 c2 -7 6 -50 9 -95 4 -71 2 -82 -12 -86 -9 -3 15 -5 53 -5
39 0 62 2 52 5 -17 4 -19 14 -17 81 4 118 6 112 -45 112 -31 0 -43 -4 -40 -12z"/>
<path d="M2129 3733 c-13 -16 -13 -17 4 -4 22 17 34 7 17 -14 -17 -20 5 -47
34 -43 17 2 21 10 21 38 0 32 -3 35 -31 38 -20 2 -35 -3 -45 -15z"/>
<path d="M2228 3743 c8 -3 12 -32 12 -93 0 -61 -4 -90 -12 -93 -7 -3 19 -5 57
-5 39 0 62 2 52 5 -16 4 -18 15 -17 81 3 120 7 112 -52 111 -29 0 -47 -3 -40
-6z"/>
<path d="M2337 3743 c-14 -13 -6 -25 8 -13 9 7 19 10 22 6 4 -4 1 -11 -7 -16
-20 -12 -1 -44 28 -48 16 -2 23 3 28 22 10 40 -1 56 -39 56 -19 0 -37 -3 -40
-7z"/>
<path d="M2438 3743 c8 -3 12 -32 12 -93 0 -61 -4 -90 -12 -93 -7 -3 16 -5 52
-5 36 0 59 2 53 5 -9 3 -13 33 -13 99 l0 94 -52 -1 c-29 0 -47 -3 -40 -6z"/>
<path d="M2596 3735 c-42 -43 -22 -96 44 -116 69 -21 80 -59 17 -59 -37 0 -47
6 -70 40 l-17 24 0 -35 0 -35 63 -2 c78 -3 100 14 95 74 -3 37 -6 40 -56 60
-64 25 -68 29 -52 49 16 20 -4 20 -24 0z"/>
<path d="M2677 3740 c12 -5 26 -17 32 -27 9 -16 10 -15 11 7 0 21 -5 25 -33
27 -27 1 -29 0 -10 -7z"/>
<path d="M220 3599 l0 -44 58 -1 c31 -1 47 0 35 3 -13 2 -38 23 -58 45 l-35
42 0 -45z"/>
<path d="M331 3238 c1 -24 3 -35 6 -25 2 9 11 17 19 17 8 0 14 5 14 10 0 6 -7
10 -15 10 -21 0 -19 18 3 23 13 4 11 5 -5 6 -21 1 -23 -3 -22 -41z"/>
<path d="M440 3240 c0 -22 5 -40 10 -40 6 0 10 8 10 18 1 16 1 16 11 0 5 -10
15 -18 20 -18 6 0 7 5 3 12 -5 7 -7 25 -6 40 2 24 -1 28 -23 28 -23 0 -25 -4
-25 -40z m35 20 c3 -5 1 -10 -4 -10 -6 0 -11 5 -11 10 0 6 2 10 4 10 3 0 8 -4
11 -10z"/>
<path d="M560 3240 c0 -37 2 -40 28 -39 16 1 20 3 10 6 -10 2 -18 11 -18 18 0
7 8 16 18 18 16 4 16 5 0 6 -10 0 -18 5 -18 10 0 5 8 12 18 14 10 3 6 5 -10 6
-26 1 -28 -2 -28 -39z"/>
<path d="M680 3250 c0 -16 -1 -33 -2 -37 -2 -5 8 -9 22 -11 24 -3 24 -3 6 11
-19 14 -19 14 0 25 17 10 17 11 2 12 -10 0 -18 4 -18 9 0 5 8 12 18 14 13 4
11 5 -5 6 -19 1 -23 -4 -23 -29z"/>
<path d="M790 3240 c0 -37 2 -40 28 -39 16 1 20 3 10 6 -13 3 -18 15 -18 39 0
19 -4 34 -10 34 -5 0 -10 -18 -10 -40z"/>
<path d="M910 3244 c-12 -37 -6 -59 10 -34 8 12 13 13 30 2 23 -14 24 -8 9 37
-14 41 -35 39 -49 -5z m27 -6 c-3 -8 -6 -5 -6 6 -1 11 2 17 5 13 3 -3 4 -12 1
-19z"/>
<path d="M1030 3240 c0 -22 5 -40 10 -40 6 0 10 12 10 28 l1 27 17 -27 c25
-41 42 -36 42 12 0 22 -4 40 -10 40 -5 0 -10 -12 -10 -27 l-1 -28 -15 28 c-22
41 -44 35 -44 -13z"/>
<path d="M1174 3255 c-4 -15 -1 -32 6 -40 13 -16 50 -21 50 -6 0 5 -8 8 -17 7
-29 -2 -29 42 -1 53 23 10 23 10 -4 10 -21 1 -29 -5 -34 -24z"/>
<path d="M1300 3240 c0 -37 2 -40 28 -39 16 1 20 3 10 6 -21 5 -24 29 -5 36
10 4 10 6 0 6 -19 1 -16 19 5 24 10 3 6 5 -10 6 -26 1 -28 -2 -28 -39z"/>
<path d="M1490 3236 c0 -26 -5 -47 -12 -50 -7 -3 -4 -5 7 -3 16 2 21 11 23 50
2 28 -1 47 -7 47 -6 0 -11 -20 -11 -44z"/>
<path d="M1580 3261 c-16 -32 4 -63 38 -59 24 3 27 7 27 38 0 31 -3 35 -27 38
-19 2 -30 -3 -38 -17z m50 -16 c0 -25 -23 -35 -35 -15 -10 16 2 40 20 40 9 0
15 -9 15 -25z"/>
<path d="M1722 3243 c2 -31 7 -39 27 -41 28 -4 41 12 41 51 0 38 -18 34 -22
-5 -2 -18 -7 -33 -13 -33 -5 0 -11 15 -13 33 -2 17 -8 32 -13 32 -6 0 -9 -17
-7 -37z"/>
<path d="M1861 3238 c1 -24 3 -35 6 -25 6 21 19 22 27 2 3 -8 11 -15 18 -15 9
0 9 3 1 11 -7 7 -9 25 -6 40 5 26 3 29 -21 29 -24 0 -26 -3 -25 -42z m29 22
c0 -5 -4 -10 -10 -10 -5 0 -10 5 -10 10 0 6 5 10 10 10 6 0 10 -4 10 -10z"/>
<path d="M1980 3240 c0 -22 5 -40 10 -40 6 0 10 12 10 28 l1 27 15 -27 c21
-40 34 -34 33 15 -1 39 -2 40 -8 12 l-8 -30 -13 28 c-20 41 -40 35 -40 -13z"/>
<path d="M2127 3240 c-17 -44 -16 -46 13 -27 17 10 22 9 30 -3 15 -25 20 -6 8
33 -15 48 -31 47 -51 -3z m30 -2 c-3 -8 -6 -5 -6 6 -1 11 2 17 5 13 3 -3 4
-12 1 -19z"/>
<path d="M2250 3240 c0 -37 2 -40 28 -40 23 1 24 2 10 11 -11 6 -18 22 -18 39
0 17 -4 30 -10 30 -5 0 -10 -18 -10 -40z"/>
<path d="M2370 3240 c0 -22 5 -40 10 -40 6 0 10 18 10 40 0 22 -4 40 -10 40
-5 0 -10 -18 -10 -40z"/>
<path d="M2450 3266 c0 -7 7 -19 15 -26 8 -7 15 -17 15 -22 0 -6 -7 -8 -15 -4
-8 3 -15 1 -15 -4 0 -6 9 -10 20 -10 27 0 38 29 17 45 -22 16 -21 22 1 28 10
3 6 5 -10 6 -18 1 -28 -4 -28 -13z"/>
<path d="M2568 3273 c6 -2 12 -20 12 -39 0 -19 5 -34 10 -34 6 0 10 15 10 34
0 19 6 37 13 39 6 3 -4 5 -23 5 -19 0 -29 -2 -22 -5z"/>
</g>
</svg>
