<svg width="50" height="48" viewBox="0 0 50 48" fill="none" xmlns="http://www.w3.org/2000/svg">
<path d="M25 3C12.9199 3 3.125 12.4031 3.125 24C3.125 35.5969 12.9199 45 25 45C37.0801 45 46.875 35.5969 46.875 24C46.875 12.4031 37.0801 3 25 3ZM35.5127 18.8297C35.5273 19.05 35.5273 19.2797 35.5273 19.5047C35.5273 26.3859 30.0684 34.3125 20.0928 34.3125C17.0166 34.3125 14.165 33.4547 11.7627 31.9781C12.2021 32.025 12.6221 32.0437 13.0713 32.0437C15.6104 32.0437 17.9443 31.2188 19.8047 29.8219C17.4219 29.775 15.4199 28.275 14.7363 26.2125C15.5713 26.3297 16.3232 26.3297 17.1826 26.1188C15.9557 25.8795 14.8529 25.2398 14.0616 24.3084C13.2703 23.377 12.8393 22.2113 12.8418 21.0094V20.9437C13.5596 21.3328 14.4043 21.5719 15.2881 21.6047C14.5451 21.1293 13.9358 20.4854 13.5142 19.7298C13.0926 18.9743 12.8717 18.1306 12.8711 17.2734C12.8711 16.3031 13.1348 15.4172 13.6084 14.6484C14.9702 16.2578 16.6696 17.5741 18.596 18.5117C20.5225 19.4493 22.6329 19.9873 24.79 20.0906C24.0234 16.5516 26.7773 13.6875 30.0879 13.6875C31.6504 13.6875 33.0566 14.3156 34.0479 15.3281C35.2734 15.1078 36.4453 14.6672 37.4902 14.0766C37.085 15.2812 36.2354 16.2984 35.1074 16.9406C36.2012 16.8281 37.2559 16.5375 38.2324 16.1297C37.4951 17.1703 36.5723 18.0938 35.5127 18.8297Z" fill="black"/>
</svg>
