<?xml version="1.0" standalone="no"?>
<!DOCTYPE svg PUBLIC "-//W3C//DTD SVG 20010904//EN"
 "http://www.w3.org/TR/2001/REC-SVG-20010904/DTD/svg10.dtd">
<svg version="1.0" xmlns="http://www.w3.org/2000/svg"
 width="468.000000pt" height="252.000000pt" viewBox="0 0 468.000000 252.000000"
 preserveAspectRatio="xMidYMid meet">
<metadata>
Created by potrace 1.15, written by Peter Selinger 2001-2017
</metadata>
<g transform="translate(0.000000,252.000000) scale(0.100000,-0.100000)"
fill="#000000" stroke="none">
<path d="M1180 1325 l0 -255 60 0 60 0 0 106 c0 116 9 144 45 144 36 0 45 -28
45 -144 l0 -106 60 0 60 0 0 128 c0 156 -16 203 -75 222 -42 14 -91 7 -117
-17 -17 -15 -18 -12 -18 80 l0 97 -60 0 -60 0 0 -255z"/>
<path d="M2442 1427 c-34 -83 -62 -155 -62 -159 0 -5 31 -8 69 -8 l68 0 21 53
c11 28 40 100 65 160 l46 107 -72 0 -72 0 -63 -153z"/>
<path d="M852 1413 c-118 -58 -128 -255 -16 -324 38 -23 121 -26 150 -4 25 19
34 19 34 0 0 -12 13 -15 55 -15 l55 0 0 175 0 175 -55 0 c-42 0 -55 -3 -55
-15 0 -8 -4 -15 -10 -15 -5 0 -10 4 -10 9 0 12 -56 31 -89 31 -14 0 -41 -8
-59 -17z m147 -119 c12 -15 21 -38 21 -51 0 -32 -42 -73 -75 -73 -34 0 -75 42
-75 76 0 68 88 100 129 48z"/>
<path d="M1642 1409 c-23 -12 -51 -33 -62 -46 -52 -66 -50 -169 2 -229 43 -48
80 -65 144 -65 138 0 223 131 165 256 -22 48 -44 69 -94 90 -50 21 -104 19
-155 -6z m133 -114 c29 -28 32 -56 9 -89 -31 -48 -102 -39 -124 14 -9 22 -8
34 4 58 25 49 73 56 111 17z"/>
<path d="M2044 1411 c-94 -43 -131 -156 -82 -251 54 -106 218 -125 296 -35
134 152 -30 370 -214 286z m116 -101 c10 -5 22 -22 28 -37 27 -78 -76 -136
-123 -70 -45 64 26 144 95 107z"/>
<path d="M2660 1250 l0 -180 60 0 60 0 0 84 c0 114 7 145 38 159 21 10 27 8
43 -12 16 -19 19 -40 19 -127 l0 -104 65 0 65 0 0 125 c0 185 -27 235 -126
235 -30 0 -56 -7 -75 -21 l-29 -20 0 20 c0 19 -6 21 -60 21 l-60 0 0 -180z"/>
<path d="M3136 1406 c-84 -51 -113 -172 -63 -261 55 -99 228 -116 306 -31 14
14 22 28 19 31 -3 4 -28 15 -56 25 -44 17 -52 17 -62 5 -19 -22 -67 -18 -92 8
l-23 22 129 3 129 3 -6 54 c-11 107 -76 165 -183 165 -44 0 -69 -6 -98 -24z
m135 -85 c32 -26 22 -33 -47 -29 l-59 3 23 23 c27 27 52 28 83 3z"/>
<path d="M3420 1418 c0 -7 25 -88 56 -180 l56 -168 57 0 57 0 29 90 c16 50 32
87 36 83 3 -5 19 -45 34 -91 l27 -83 56 3 56 3 57 165 c32 91 58 171 58 178 1
10 -15 12 -61 10 l-62 -3 -23 -75 c-13 -41 -26 -82 -29 -90 -4 -9 -19 23 -38
75 l-31 90 -47 3 -47 3 -27 -90 c-16 -50 -31 -91 -34 -91 -4 0 -18 39 -31 88
l-26 87 -61 3 c-46 2 -62 0 -62 -10z"/>
<path d="M4062 1410 c-64 -39 -76 -129 -24 -171 14 -11 52 -27 84 -36 34 -10
58 -22 58 -30 0 -17 -53 -16 -105 2 -22 8 -41 15 -42 15 -2 0 -12 -19 -24 -42
-20 -40 -21 -42 -3 -55 46 -33 169 -44 228 -19 64 27 95 101 66 157 -12 22
-68 52 -128 68 -41 12 -54 25 -30 33 13 5 82 -6 110 -17 13 -5 21 2 33 31 9
21 13 44 11 50 -14 36 -181 46 -234 14z"/>
<path d="M360 1412 c0 -4 32 -81 70 -172 39 -91 69 -172 67 -180 -3 -8 -14
-39 -26 -67 l-21 -53 63 0 63 0 91 223 c51 122 95 230 99 240 6 16 1 18 -57
15 l-64 -3 -36 -93 c-19 -50 -38 -95 -41 -98 -4 -3 -23 40 -45 95 l-38 101
-62 0 c-35 0 -63 -3 -63 -8z"/>
<path d="M2375 1218 c-31 -18 -44 -40 -45 -74 0 -60 75 -95 127 -59 44 31 37
111 -13 134 -31 14 -44 14 -69 -1z"/>
</g>
</svg>
